<svg id="Calque_1" data-name="Calque 1" xmlns="http://www.w3.org/2000/svg" viewBox="0 0 242.35 245.76"><defs><style>.cls-1{fill:blue;}</style></defs><path class="cls-1" d="M140.17,108.52a1.94,1.94,0,1,0-1.38-.58A1.92,1.92,0,0,0,140.17,108.52Zm0-2,.08.1a.07.07,0,0,1-.09,0Z"/><path class="cls-1" d="M144.09,150.74H102.73l10-9.88.41.42a1,1,0,0,0,.71.3h0a1,1,0,0,0,.71-.29L145,111.16a6.37,6.37,0,0,0,.05-9l-.41-.41a6.31,6.31,0,0,0-4.49-1.89h0a6.32,6.32,0,0,0-4.48,1.84l-30.45,30.12a1,1,0,0,0,0,1.42l.35.35-5.94,5.89a1,1,0,0,0-.3.71v11.48s0,.05,0,.08a1.07,1.07,0,0,0,.17.53l0,0a.93.93,0,0,0,.16.18l.09.06a1,1,0,0,0,.54.18h43.82a1,1,0,1,0,0-2ZM137,103.11a4.38,4.38,0,0,1,3.08-1.26h0a4.28,4.28,0,0,1,3.08,1.3l.41.4a4.39,4.39,0,0,1,0,6.19l-29.74,29.42-6.56-6.63ZM101.29,140.6l5.65-5.6,4.39,4.44-10,9.91Z"/></svg>