<svg id="Calque_1" data-name="Calque 1" xmlns="http://www.w3.org/2000/svg" viewBox="0 0 242.35 245.76"><defs><style>.cls-1{fill:blue;}</style></defs><path class="cls-1" d="M131.23,116.6a15.87,15.87,0,1,0-26.47,3.75,4,4,0,0,0-1.87,3.17v27.73c0,4.76,10.88,7.33,21.12,7.33s21.12-2.57,21.12-7.33V123.52C145.13,119.62,138.2,117.43,131.23,116.6Zm11.9,6.92c0,2.22-7.27,5.33-19.12,5.33s-19.12-3.11-19.12-5.33c0-.54.45-1.14,1.28-1.73a15.83,15.83,0,0,0,21.85-.54,16.19,16.19,0,0,0,2.18-2.74C138.3,119.34,143.13,121.68,143.13,123.52Zm0,3.25V148c-3.61-2.66-11.54-4.07-19.12-4.07s-15.51,1.41-19.12,4.07V126.77c3.61,2.67,11.54,4.08,19.12,4.08S139.52,129.44,143.13,126.77ZM107,100.21a13.88,13.88,0,1,1,0,19.62A13.82,13.82,0,0,1,107,100.21Zm17,56.37c-11.85,0-19.12-3.11-19.12-5.33s7.27-5.33,19.12-5.33,19.12,3.1,19.12,5.33S135.86,156.58,124,156.58Z"/><path class="cls-1" d="M139.92,142.65a1,1,0,0,0,1-1v-9.59a1,1,0,0,0-2,0v9.59A1,1,0,0,0,139.92,142.65Z"/><path class="cls-1" d="M124.32,117.44a1,1,0,0,0,.7.29,1,1,0,0,0,.71-.29,10.5,10.5,0,0,0,0-14.83,1,1,0,0,0-1.41,0,1,1,0,0,0,0,1.41,8.49,8.49,0,0,1,0,12A1,1,0,0,0,124.32,117.44Z"/></svg>