<svg id="Calque_1" data-name="Calque 1" xmlns="http://www.w3.org/2000/svg" viewBox="0 0 242.35 245.76"><defs><style>.cls-1{fill:blue;}</style></defs><path class="cls-1" d="M145.47,117.56l5.58-5.58a1,1,0,0,0-.43-1.67l-21.31-6.17a1,1,0,0,0-1,.25L123,109.7l-5.31-5.31a1,1,0,0,0-1-.25l-21.31,6.17a1,1,0,0,0-.69.71,1,1,0,0,0,.26,1l5.58,5.58L95,123.14a1,1,0,0,0-.26,1,1,1,0,0,0,.69.71l5.21,1.51v19.54a1,1,0,0,0,.72,1L122.66,153a1,1,0,0,0,.56,0l21.31-6.17a1,1,0,0,0,.72-1V126.36l5.37-1.56a1,1,0,0,0,.69-.71,1,1,0,0,0-.26-1Zm-22.45-5,17.44,5-17.44,5-17.44-5ZM97.6,123.35l4.63-4.52,19.12,5.42-4.63,4.64Zm31.73-17.12,19.11,5.53-4.67,4.67-19.12-5.53Zm-12.61,0,4.67,4.67-19.12,5.53-4.67-4.67Zm-14.09,20.66,14.1,4.09a1.27,1.27,0,0,0,.28,0,1,1,0,0,0,.7-.29l4.23-4.23v24.2l-19.31-5.59Zm40.62,18.21-19.31,5.59V126.33l4.39,4.39a1,1,0,0,0,.71.29,1.24,1.24,0,0,0,.27,0l13.94-4Zm-13.92-16.21-4.68-4.67,19-5.52,4.74,4.65Z"/></svg>