<svg id="Calque_1" data-name="Calque 1" xmlns="http://www.w3.org/2000/svg" viewBox="0 0 242.35 245.76"><defs><style>.cls-1{fill:blue;}</style></defs><path class="cls-1" d="M134.39,111.33a4.8,4.8,0,0,0,4.8-4.79V93.76a1,1,0,1,0-2,0v12.78a2.8,2.8,0,0,1-5.59,0v-3.13a4.8,4.8,0,0,0-9.59,0v8.31a16.15,16.15,0,0,0-15.15,16.1v16a16.15,16.15,0,1,0,32.3,0v-16A16.15,16.15,0,0,0,124,111.72v-8.31a2.8,2.8,0,0,1,5.59,0v3.13A4.8,4.8,0,0,0,134.39,111.33ZM122,113.72v13.1h-13.1A14.14,14.14,0,0,1,122,113.72ZM123,158a14.17,14.17,0,0,1-14.15-14.15v-15h28.3v15A14.17,14.17,0,0,1,123,158Zm14.1-31.14H124v-13.1A14.14,14.14,0,0,1,137.11,126.82Z"/></svg>