<?xml version="1.0" encoding="utf-8"?>
<!-- Generator: Adobe Illustrator 24.3.0, SVG Export Plug-In . SVG Version: 6.00 Build 0)  -->
<svg version="1.1" id="Calque_1" xmlns="http://www.w3.org/2000/svg" xmlns:xlink="http://www.w3.org/1999/xlink" x="0px" y="0px"
	 viewBox="0 0 219 136" style="enable-background:new 0 0 219 136;" xml:space="preserve">
<style type="text/css">
	.st0{fill:#FFFFFF;}
	.st1{fill:none;stroke:#FFFFFF;stroke-width:0.5;stroke-linecap:round;}
</style>
<desc>Created with Sketch.</desc>
<g id="Page-1">
	<g id="Le-Grand-Bain---Onepage" transform="translate(-611.000000, -120.000000)">
		<g id="_x30_1-Hero">
			<g id="Group-2" transform="translate(112.000000, 16.000000)">
				<g id="logo_x2F_logo-le-grand-bain" transform="translate(498.945471, 104.000000)">
					<g id="logo-le-grand-bain">
						<g id="Group" transform="translate(17.792420, 0.000000)">
							<path id="Shape" class="st0" d="M75.7,91.3c12.5,0,19.1,3,25.4,6.2L82.4,38H69.9L51.5,96.9C57.5,94,64,91.3,75.7,91.3z
								 M76.1,56.3l6.3,24.1H69.8L76.1,56.3z"/>
							<path id="Path" class="st0" d="M124.1,104.7V38h-13.6v63.8C114.9,103.5,119.5,104.4,124.1,104.7z"/>
							<path id="Path_1_" class="st0" d="M149.2,101V61.3L164,94.1c4.6-1.6,10-2.8,17.8-2.8h0.9V38h-13.5v44.3l-20-44.3h-13.6v66.5
								C140.2,104,144.8,102.9,149.2,101L149.2,101z"/>
							<path id="Shape_1_" class="st0" d="M22.6,104.8c2.9,0,5.9-0.2,8.8-0.6c2.4-0.8,4.6-2,6.5-3.7c3.6-3.3,5.4-8.3,5.4-14.8V63.5
								c0.1-3.3-0.8-6.5-2.4-9.4c-1.6-2.6-4-4.4-6.9-5.2c2.6-1.1,4.8-3,6.2-5.4c1.6-2.7,2.4-5.8,2.3-8.9V18.1
								C42.4,12.2,40.5,7.8,37,4.7C33.3,1.6,27.9,0,20.9,0H0v100C5.6,102.6,12,104.8,22.6,104.8z M13.7,11.3h7.2c2.8,0,4.8,0.7,6,2
								c1.2,1.3,1.8,3.4,1.8,6.2c0,0.1,0,16.4,0,16.5c0,5.5-2.7,8.3-8,8.3h-7.1V11.3z M13.7,54.3h9.6c4.3,0.2,6.5,3.2,6.6,9
								c0,0.1,0,22.1,0,22.2c0,2.8-0.6,4.9-1.9,6.5c-1.4,1.6-3.5,2.4-5.6,2.3h-8.7V54.3z"/>
						</g>
						<g id="Group_1_" transform="translate(69.552187, 1.619048)">
							<polygon id="Path_2_" class="st0" points="0.3,1 5.7,1 5.7,23 12.6,23 12.1,27.6 0.3,27.6 							"/>
							<polygon id="Path_3_" class="st0" points="27.6,16 21.6,16 21.6,23 28.6,23 28,27.6 16.2,27.6 16.2,1 28,1 28,5.7 21.6,5.7 
								21.6,11.3 27.6,11.3 							"/>
							<path id="Path_4_" class="st0" d="M54.2,27.6h-4c-0.1-0.7-0.2-1.3-0.2-2C49,27.5,47.2,28,45.5,28c-4.4,0-5.9-3.3-5.9-8.9V9.5
								c0-5.6,2.1-9,7.4-9c6.5,0,7.1,4.8,7.1,7.4v0.9h-5.4V7.7c0-1.3-0.2-2.7-1.7-2.7c-1.4,0-1.9,1.4-1.9,4.1v10.5
								c0,2.9,0.6,3.9,1.9,3.9c1.3,0,1.8-1.1,1.8-3.5v-3.3h-1.9v-4.4h7.3V27.6z"/>
							<path id="Shape_2_" class="st0" d="M64.7,16.2v11.4h-5.3V1h7.2c4.6,0,6.9,2.1,6.9,6.8v0.7c0,3.8-1.6,5-2.8,5.6
								c1.8,0.8,2.6,2.2,2.6,5.9v0.2c-0.1,2.5,0,4.9,0.2,7.4h-5.2c-0.3-1.2-0.3-4.4-0.3-7.6v-0.2c0-3-0.4-3.6-2.4-3.6L64.7,16.2z
								 M64.7,12h0.8c1.8,0,2.6-0.6,2.6-3.1v-1c0-1.9-0.5-2.8-2.4-2.8h-1V12z"/>
							<path id="Shape_3_" class="st0" d="M83.1,21.4l-0.7,6.2H77L81.1,1H89l4.2,26.6h-5.6l-0.8-6.2H83.1z M86.3,16.8
								c-0.4-3.5-1-8.5-1.2-11h-0.2c-0.1,2-0.8,7.6-1.2,11H86.3z"/>
							<path id="Path_5_" class="st0" d="M97,27.6V1h5.9c1.6,5.4,3.8,15.4,4,16.5h0.1c-0.3-3.5-0.4-8.2-0.4-12.1V1h4.9v26.6h-5.9
								c-1.4-5.1-3.8-16.4-4-17.3h-0.1c0.2,3.1,0.3,8.4,0.3,12.6v4.7H97z"/>
							<path id="Shape_4_" class="st0" d="M117,1h6.6c5.8,0,7.9,2.8,7.9,9.1v7.7c0,5.7-1.4,9.8-7.7,9.8H117V1z M122.3,23.4h1
								c2.2,0,2.7-1.5,2.7-4.7V9.5c0-2.9-0.5-4.2-2.7-4.2h-1V23.4z"/>
						</g>
						<g id="Group_2_" transform="translate(0.000000, 106.857143)">
							<path id="Path_6_" class="st1" d="M0.2,3.5C8.5,10.1,17.5,11,28,12.6c7.8,1.2,16.5,2.8,26.2,7.5
								c47.5,22.9,50.8-13.4,85.6-3.3c24.8,7.2,47.5-20.7,79.1-7.5"/>
							<path id="Path_7_" class="st1" d="M0.7,3.8C9,10.8,18,12,28.2,13.5c7.9,1.1,16.6,2.2,26.2,6.1c1.2,0.5,2.4,0.9,3.6,1.4
								c11.4,4.2,20.2,5.3,27.8,4.8c15.9-1.2,25.1-10.8,40.5-10.9c4.7,0,9.3,0.7,13.7,2.1c12.6,3.9,23.5-0.3,36-4.4
								c13.3-4.3,27.1-9.6,42.9-3.2"/>
							<path id="Path_8_" class="st1" d="M1.1,4.1c8.4,7.4,17.3,8.9,27.4,10.2c8.1,1,16.6,1.5,26.1,4.6c1.2,0.4,2.4,0.7,3.6,1.1
								c11.2,3.3,20,4.2,27.8,3.6c15.6-1.1,25.2-9.8,40.6-9.1c4.7,0.2,9.3,1,13.7,2.5c13.1,4.3,23.4,0.7,36-3.1
								c13.6-4,27.3-10.5,42.6-4.5"/>
							<path id="Path_9_" class="st1" d="M1.6,4.5c8.5,7.8,17.3,9.5,27.1,10.7c8.2,1,16.7,0.9,26,3.1c1.2,0.3,2.4,0.5,3.6,0.8
								c10.9,2.4,19.8,3,27.8,2.4c15.2-1.1,25.3-8.7,40.8-7.4c4.6,0.4,9.2,1.4,13.6,2.9c13.6,4.7,23.2,1.7,36-1.8
								c13.9-3.8,27.6-11.5,42.4-5.9"/>
							<path id="Path_10_" class="st1" d="M2,4.8C10.6,13,19.4,14.9,29,15.9c8.3,0.9,16.8,0.2,26,1.7c1.2,0.2,2.4,0.3,3.5,0.5
								c9.2,1.5,18.5,1.9,27.8,1.3c14.9-1.1,25.3-7.6,40.9-5.6c4.6,0.6,9.2,1.6,13.6,3.2c14.1,5.1,23.1,2.8,35.9-0.5
								C190.9,13,204.4,4,218.8,9.3"/>
							<path id="Path_11_" class="st1" d="M2.5,5.1c8.6,8.6,17.3,10.8,26.7,11.7c8.4,0.8,16.9-0.5,25.9,0.2c1.2,0.1,2.4,0.1,3.5,0.2
								c9.2,0.7,18.5,0.8,27.8,0.1c14.6-1,25.4-6.6,41-3.8c4.6,0.8,9.1,2,13.5,3.6c14.6,5.6,22.9,3.8,35.9,0.8
								c14.6-3.3,28-13.5,42-8.6"/>
							<path id="Path_12_" class="st1" d="M3,5.4c8.7,9,17.3,11.4,26.5,12.1c8.5,0.7,17-0.7,25.8-1.2c1.2-0.1,2.3-0.2,3.5-0.1
								c10.1,0.8,19.1-0.4,27.8-1c14.3-1,25.5-5.5,41.2-2.1c4.6,1,9.1,2.3,13.4,4c15,6,22.8,4.9,35.9,2.1
								c14.8-3.1,28.2-14.5,41.7-9.9"/>
							<path id="Path_13_" class="st1" d="M3.4,5.7c8.7,9.4,17.3,12.1,26.3,12.7c8.6,0.6,17.1-1.9,25.7-2.7c1.2-0.1,2.4-0.3,3.5-0.4
								c9.8-0.8,18.8-1.6,27.8-2.2c14-1,25.5-4.4,41.3-0.3c4.5,1.1,9,2.6,13.3,4.4c15.5,6.5,22.6,5.9,35.9,3.4
								c15.1-2.8,28.5-15.4,41.5-11.3"/>
							<path id="Path_14_" class="st1" d="M3.9,6.1c8.8,9.8,17.3,12.7,26,13.2c8.7,0.5,17.2-2.6,25.7-4.1c1.2-0.2,2.3-0.5,3.5-0.7
								c9.6-1.6,18.6-2.7,27.8-3.4c13.7-0.9,25.6-3.4,41.4,1.4c4.5,1.3,8.9,2.9,13.2,4.7c16,6.9,22.5,6.9,35.9,4.7
								c15.4-2.5,28.7-16.4,41.3-12.7"/>
							<path id="Path_15_" class="st1" d="M4.3,6.4c8.9,10.2,17.4,13.3,25.8,13.7c8.8,0.4,17.3-3.3,25.6-5.6c1.2-0.3,2.3-0.7,3.5-1
								c9.1-2.3,18.4-3.9,27.8-4.5c13.4-0.9,25.7-2.3,41.6,3.2c4.7,1.6,9.1,3.2,13.2,5.1c16.4,7.4,22.4,7.9,35.8,6
								c15.8-2.3,28.9-17.4,41.1-14"/>
							<path id="Path_16_" class="st1" d="M4.8,6.7c8.9,10.6,17.4,13.9,25.6,14.2c8.9,0.3,17.4-4,25.5-7c1.2-0.4,2.3-0.9,3.5-1.3
								c9-3.1,18.3-5,27.8-5.7c13-0.9,25.7-1.2,41.7,5c4.8,1.8,9.1,3.6,13.1,5.5c16.9,7.9,22.2,9,35.8,7.3
								c16.1-2,29.2-18.4,40.8-15.4"/>
							<path id="Path_17_" class="st1" d="M5.2,7c9,11,17.4,14.6,25.4,14.7c9.1,0.2,17.4-4.8,25.5-8.5c1.2-0.6,2.3-1.1,3.5-1.6
								c8.8-3.9,18.2-6.2,27.8-6.9c12.7-0.8,25.8-0.1,41.8,6.7c4.9,2.1,9.2,4,13,5.9c17.3,8.5,22.1,10,35.8,8.6
								c16.4-1.7,29.4-19.4,40.6-16.7"/>
							<path id="Path_18_" class="st1" d="M5.7,7.3c9.1,11.4,17.4,15.2,25.2,15.2c9.2,0,17.5-5.5,25.4-9.9c1.2-0.7,2.3-1.3,3.5-1.9
								c8.6-4.6,18-7.3,27.8-8c12.4-0.8,25.8,1.1,42,8.5c4.9,2.3,9.2,4.3,12.9,6.2c17.8,9,22,11.1,35.8,9.9
								c16.7-1.4,29.6-20.3,40.4-18.1"/>
							<path id="Path_19_" class="st1" d="M6.2,7.7c22,28.5,38.8,11.3,53.7,2c8.3-5.3,17.9-8.5,27.7-9.2
								c12.1-0.8,25.9,2.2,42.1,10.2c30,15,31.9,18.9,48.6,17.8c17-1.1,29.9-21.3,40.2-19.4"/>
						</g>
					</g>
				</g>
			</g>
		</g>
	</g>
</g>
</svg>
