<?xml version="1.0" encoding="utf-8"?>
<!-- Generator: Adobe Illustrator 25.0.0, SVG Export Plug-In . SVG Version: 6.00 Build 0)  -->
<svg version="1.1" id="Calque_1" xmlns="http://www.w3.org/2000/svg" xmlns:xlink="http://www.w3.org/1999/xlink" x="0px" y="0px"
	 viewBox="0 0 190.3 185.2" style="enable-background:new 0 0 190.3 185.2;" xml:space="preserve">
<style type="text/css">
	.st0{clip-path:url(#SVGID_2_);}
	.st1{fill:none;stroke:#000000;stroke-width:3;stroke-miterlimit:10;}
</style>
<g>
	<g>
		<defs>
			<rect id="SVGID_1_" width="190.3" height="185.2"/>
		</defs>
		<clipPath id="SVGID_2_">
			<use xlink:href="#SVGID_1_"  style="overflow:visible;"/>
		</clipPath>
		<g class="st0">
			<path class="st1" d="M188.9,92.5c-0.2,50.2-42.3,90.7-94.1,90.6c-51.8-0.2-93.6-41-93.4-91.2c0.2-50,42.1-90.5,93.8-90.5
				C147,1.5,189,42.3,188.9,92.5z M177.8,103.5c-0.2,44.2-37.4,79.9-83,79.7s-82.4-36.3-82.2-80.5C12.8,58.6,49.7,23,95.2,23
				c45.5,0.5,82.3,36.2,82.6,80.3L177.8,103.5z M166.6,114.3c0,38.4-34.5,69.5-71.5,69.5s-71.5-31.1-71.5-69.5
				c-0.8-38.3,30.6-69.9,70-70.7s72.1,29.6,72.9,67.9C166.7,112.5,166.7,113.4,166.6,114.3z M155.5,125.3
				c0,32.4-30.8,58.7-60.4,58.7s-60.3-26.3-60.3-58.7c-0.7-32.3,25.7-59.1,59-59.8c33.3-0.7,60.9,24.9,61.7,57.2
				C155.5,123.6,155.5,124.5,155.5,125.3z M144.4,136.1c0,26.5-27,47.9-49.2,47.9S46,162.3,46,135.8C45.3,109.5,66.8,87.6,94,87
				s49.7,20.2,50.4,46.6c0,0.8,0,1.5,0,2.3V136.1z M133.3,146.9c0,20.4-23.3,37-38.1,37s-38.1-16.5-38.1-37
				c-0.6-20.4,16-37.4,37.1-37.9c21-0.6,38.6,15.5,39.1,35.9C133.3,145.6,133.3,146.3,133.3,146.9z M122.1,157.8
				c0,14.5-19.6,26.2-27,26.2s-27-11.7-27-26.2c-0.5-14.4,11.2-26.5,26.1-27s27.4,10.9,27.8,25.3
				C122.2,156.6,122.2,157.2,122.1,157.8z M111,168.6c0,8.5-15.9,15.4-15.9,15.4s-15.8-6.9-15.8-15.4c-0.4-8.5,6.4-15.6,15.2-16
				c8.7-0.4,16.1,6.2,16.5,14.7C111,167.7,111,168.2,111,168.6z"/>
		</g>
	</g>
</g>
</svg>
