<svg id="Calque_1" data-name="Calque 1" xmlns="http://www.w3.org/2000/svg" xmlns:xlink="http://www.w3.org/1999/xlink" viewBox="0 0 190.31 185.23"><defs><style>.cls-1,.cls-3{fill:none;}.cls-2{clip-path:url(#clip-path);}.cls-3{stroke:#000;stroke-miterlimit:10;}</style><clipPath id="clip-path"><rect class="cls-1" x="61.54" y="58.87" width="67.22" height="67.5"/></clipPath></defs><g class="cls-2"><path class="cls-3" d="M128.26,92.59A33.11,33.11,0,1,1,95.15,59.37,33.17,33.17,0,0,1,128.26,92.59Zm-3.93,4A29.18,29.18,0,1,1,95.15,67.26,29.51,29.51,0,0,1,124.33,96.54Zm-3.93,3.94c0,14-12.19,25.34-25.25,25.34s-25.24-11.35-25.24-25.34a25.25,25.25,0,1,1,50.49,0Zm-3.93,4c0,11.81-10.87,21.39-21.32,21.39s-21.31-9.58-21.31-21.39a21.32,21.32,0,1,1,42.63,0Zm-3.93,3.94c0,9.64-9.55,17.45-17.39,17.45S77.77,118,77.77,108.37a17.39,17.39,0,1,1,34.77,0Zm-3.93,3.95c0,7.45-8.23,13.5-13.46,13.5s-13.45-6-13.45-13.5a13.46,13.46,0,1,1,26.91,0Zm-3.93,3.94c0,5.28-6.91,9.56-9.53,9.56s-9.52-4.28-9.52-9.56a9.53,9.53,0,1,1,19.05,0Zm-3.93,3.95c0,3.1-5.6,5.61-5.6,5.61s-5.59-2.51-5.59-5.61a5.6,5.6,0,1,1,11.19,0Z"/></g></svg>