<svg id="Calque_1" data-name="Calque 1" xmlns="http://www.w3.org/2000/svg" xmlns:xlink="http://www.w3.org/1999/xlink" viewBox="0 0 1848.93 24.05"><defs><style>.cls-1,.cls-4{fill:none;}.cls-2{fill:#1d1d1b;}.cls-3{clip-path:url(#clip-path);}.cls-4{stroke:#1d1d1b;stroke-width:1.33px;}</style><clipPath id="clip-path" transform="translate(-35.39 -527.94)"><rect class="cls-1" x="35.85" y="527.94" width="1848" height="24.05"/></clipPath></defs><polygon class="cls-2" points="924.5 0 922.96 6.22 918.5 1.62 920.27 7.78 914.12 6.04 918.73 10.48 912.52 12.05 918.73 13.59 914.15 18.06 920.29 16.28 918.55 22.45 922.99 17.83 924.55 24.05 926.09 17.82 930.55 22.42 928.78 16.26 934.93 18.01 930.33 13.57 936.53 11.99 930.32 10.45 934.9 5.99 928.76 7.76 930.5 1.6 926.07 6.21 924.5 0"/><g class="cls-3"><path class="cls-4" d="M907.85,540a7.6,7.6,0,0,1-9.91,0,7.62,7.62,0,0,0-9.91,0,7.6,7.6,0,0,1-9.91,0,7.61,7.61,0,0,0-9.9,0,7.6,7.6,0,0,1-9.91,0,7.62,7.62,0,0,0-9.91,0,7.6,7.6,0,0,1-9.91,0,7.62,7.62,0,0,0-9.91,0,7.6,7.6,0,0,1-9.91,0,7.62,7.62,0,0,0-9.91,0,7.6,7.6,0,0,1-9.91,0,7.62,7.62,0,0,0-9.91,0,7.6,7.6,0,0,1-9.91,0,7.62,7.62,0,0,0-9.91,0,7.59,7.59,0,0,1-9.9,0,7.62,7.62,0,0,0-9.91,0,7.6,7.6,0,0,1-9.91,0,7.62,7.62,0,0,0-9.91,0,7.6,7.6,0,0,1-9.91,0,7.62,7.62,0,0,0-9.91,0,7.6,7.6,0,0,1-9.91,0,7.62,7.62,0,0,0-9.91,0,7.6,7.6,0,0,1-9.91,0,7.62,7.62,0,0,0-9.91,0,7.6,7.6,0,0,1-9.91,0,7.61,7.61,0,0,0-9.9,0,7.6,7.6,0,0,1-9.91,0,7.62,7.62,0,0,0-9.91,0,7.6,7.6,0,0,1-9.91,0,7.62,7.62,0,0,0-9.91,0,7.6,7.6,0,0,1-9.91,0,7.62,7.62,0,0,0-9.91,0,7.6,7.6,0,0,1-9.91,0,7.62,7.62,0,0,0-9.91,0,7.6,7.6,0,0,1-9.91,0,7.62,7.62,0,0,0-9.91,0,7.59,7.59,0,0,1-9.9,0,7.62,7.62,0,0,0-9.91,0,7.6,7.6,0,0,1-9.91,0,7.62,7.62,0,0,0-9.91,0,7.6,7.6,0,0,1-9.91,0,7.62,7.62,0,0,0-9.91,0,7.6,7.6,0,0,1-9.91,0,7.62,7.62,0,0,0-9.91,0,7.6,7.6,0,0,1-9.91,0,7.62,7.62,0,0,0-9.91,0,7.6,7.6,0,0,1-9.91,0,7.61,7.61,0,0,0-9.9,0,7.6,7.6,0,0,1-9.91,0,7.62,7.62,0,0,0-9.91,0,7.6,7.6,0,0,1-9.91,0,7.62,7.62,0,0,0-9.91,0,7.6,7.6,0,0,1-9.91,0,7.62,7.62,0,0,0-9.91,0,7.6,7.6,0,0,1-9.91,0,7.62,7.62,0,0,0-9.91,0,7.6,7.6,0,0,1-9.91,0,7.62,7.62,0,0,0-9.91,0,7.59,7.59,0,0,1-9.9,0,7.62,7.62,0,0,0-9.91,0,7.6,7.6,0,0,1-9.91,0,7.62,7.62,0,0,0-9.91,0,7.6,7.6,0,0,1-9.91,0,7.62,7.62,0,0,0-9.91,0,7.6,7.6,0,0,1-9.91,0,7.62,7.62,0,0,0-9.91,0,7.6,7.6,0,0,1-9.91,0,7.62,7.62,0,0,0-9.91,0,7.6,7.6,0,0,1-9.91,0,7.61,7.61,0,0,0-9.9,0,7.6,7.6,0,0,1-9.91,0,7.62,7.62,0,0,0-9.91,0,7.6,7.6,0,0,1-9.91,0,7.62,7.62,0,0,0-9.91,0,7.6,7.6,0,0,1-9.91,0,7.62,7.62,0,0,0-9.91,0,7.6,7.6,0,0,1-9.91,0,7.62,7.62,0,0,0-9.91,0,7.6,7.6,0,0,1-9.91,0,7.62,7.62,0,0,0-9.91,0,7.59,7.59,0,0,1-9.9,0,7.62,7.62,0,0,0-9.91,0,7.6,7.6,0,0,1-9.91,0,7.62,7.62,0,0,0-9.91,0,7.6,7.6,0,0,1-9.91,0,7.62,7.62,0,0,0-9.91,0,7.6,7.6,0,0,1-9.91,0,7.62,7.62,0,0,0-9.91,0" transform="translate(-35.39 -527.94)"/><path class="cls-4" d="M1883.85,540a7.6,7.6,0,0,1-9.91,0,7.62,7.62,0,0,0-9.91,0,7.6,7.6,0,0,1-9.91,0,7.61,7.61,0,0,0-9.9,0,7.6,7.6,0,0,1-9.91,0,7.62,7.62,0,0,0-9.91,0,7.6,7.6,0,0,1-9.91,0,7.62,7.62,0,0,0-9.91,0,7.6,7.6,0,0,1-9.91,0,7.62,7.62,0,0,0-9.91,0,7.6,7.6,0,0,1-9.91,0,7.62,7.62,0,0,0-9.91,0,7.6,7.6,0,0,1-9.91,0,7.62,7.62,0,0,0-9.91,0,7.59,7.59,0,0,1-9.9,0,7.62,7.62,0,0,0-9.91,0,7.6,7.6,0,0,1-9.91,0,7.62,7.62,0,0,0-9.91,0,7.6,7.6,0,0,1-9.91,0,7.62,7.62,0,0,0-9.91,0,7.6,7.6,0,0,1-9.91,0,7.62,7.62,0,0,0-9.91,0,7.6,7.6,0,0,1-9.91,0,7.62,7.62,0,0,0-9.91,0,7.6,7.6,0,0,1-9.91,0,7.61,7.61,0,0,0-9.9,0,7.6,7.6,0,0,1-9.91,0,7.62,7.62,0,0,0-9.91,0,7.6,7.6,0,0,1-9.91,0,7.62,7.62,0,0,0-9.91,0,7.6,7.6,0,0,1-9.91,0,7.62,7.62,0,0,0-9.91,0,7.6,7.6,0,0,1-9.91,0,7.62,7.62,0,0,0-9.91,0,7.6,7.6,0,0,1-9.91,0,7.62,7.62,0,0,0-9.91,0,7.59,7.59,0,0,1-9.9,0,7.62,7.62,0,0,0-9.91,0,7.6,7.6,0,0,1-9.91,0,7.62,7.62,0,0,0-9.91,0,7.6,7.6,0,0,1-9.91,0,7.62,7.62,0,0,0-9.91,0,7.6,7.6,0,0,1-9.91,0,7.62,7.62,0,0,0-9.91,0,7.6,7.6,0,0,1-9.91,0,7.62,7.62,0,0,0-9.91,0,7.6,7.6,0,0,1-9.91,0,7.61,7.61,0,0,0-9.9,0,7.6,7.6,0,0,1-9.91,0,7.62,7.62,0,0,0-9.91,0,7.6,7.6,0,0,1-9.91,0,7.62,7.62,0,0,0-9.91,0,7.6,7.6,0,0,1-9.91,0,7.62,7.62,0,0,0-9.91,0,7.6,7.6,0,0,1-9.91,0,7.62,7.62,0,0,0-9.91,0,7.6,7.6,0,0,1-9.91,0,7.62,7.62,0,0,0-9.91,0,7.59,7.59,0,0,1-9.9,0,7.62,7.62,0,0,0-9.91,0,7.6,7.6,0,0,1-9.91,0,7.62,7.62,0,0,0-9.91,0,7.6,7.6,0,0,1-9.91,0,7.62,7.62,0,0,0-9.91,0,7.6,7.6,0,0,1-9.91,0,7.62,7.62,0,0,0-9.91,0,7.6,7.6,0,0,1-9.91,0,7.62,7.62,0,0,0-9.91,0,7.6,7.6,0,0,1-9.91,0,7.61,7.61,0,0,0-9.9,0,7.6,7.6,0,0,1-9.91,0,7.62,7.62,0,0,0-9.91,0,7.6,7.6,0,0,1-9.91,0,7.62,7.62,0,0,0-9.91,0,7.6,7.6,0,0,1-9.91,0,7.62,7.62,0,0,0-9.91,0,7.6,7.6,0,0,1-9.91,0,7.62,7.62,0,0,0-9.91,0,7.6,7.6,0,0,1-9.91,0,7.62,7.62,0,0,0-9.91,0,7.59,7.59,0,0,1-9.9,0,7.62,7.62,0,0,0-9.91,0,7.6,7.6,0,0,1-9.91,0,7.62,7.62,0,0,0-9.91,0,7.6,7.6,0,0,1-9.91,0,7.62,7.62,0,0,0-9.91,0,7.6,7.6,0,0,1-9.91,0,7.62,7.62,0,0,0-9.91,0" transform="translate(-35.39 -527.94)"/></g></svg>