<svg id="Calque_1" data-name="Calque 1" xmlns="http://www.w3.org/2000/svg" viewBox="0 0 60.9 678.13"><defs><style>.cls-1{fill:#1d1d1b;}.cls-2,.cls-3{fill:none;}.cls-2{stroke:#1d1d1b;stroke-width:1.33px;}</style></defs><polygon class="cls-1" points="28.88 628.85 24.41 624.26 26.19 630.41 20.02 628.66 24.64 633.1 18.43 634.67 24.65 636.21 20.05 640.66 26.21 638.89 24.46 645.05 28.91 640.44 30.48 646.64 32.02 640.43 36.48 645.02 34.71 638.87 40.88 640.62 36.26 636.18 42.47 634.61 36.25 633.07 40.85 628.62 34.69 630.39 36.44 624.24 31.99 628.84 30.42 622.64 28.88 628.85"/><path class="cls-2" d="M30.45,42.46a7.65,7.65,0,0,1,0,9.93,7.65,7.65,0,0,0,0,9.93,7.65,7.65,0,0,1,0,9.93,7.65,7.65,0,0,0,0,9.93,7.65,7.65,0,0,1,0,9.93,7.64,7.64,0,0,0,0,9.92,7.65,7.65,0,0,1,0,9.93,7.65,7.65,0,0,0,0,9.93,7.65,7.65,0,0,1,0,9.93,7.65,7.65,0,0,0,0,9.93,7.65,7.65,0,0,1,0,9.93,7.65,7.65,0,0,0,0,9.93,7.64,7.64,0,0,1,0,9.92,7.65,7.65,0,0,0,0,9.93,7.65,7.65,0,0,1,0,9.93,7.65,7.65,0,0,0,0,9.93,7.65,7.65,0,0,1,0,9.93,7.65,7.65,0,0,0,0,9.93,7.65,7.65,0,0,1,0,9.93,7.64,7.64,0,0,0,0,9.92,7.65,7.65,0,0,1,0,9.93,7.65,7.65,0,0,0,0,9.93,7.65,7.65,0,0,1,0,9.93,7.65,7.65,0,0,0,0,9.93,7.65,7.65,0,0,1,0,9.93,7.65,7.65,0,0,0,0,9.93,7.64,7.64,0,0,1,0,9.92,7.65,7.65,0,0,0,0,9.93,7.65,7.65,0,0,1,0,9.93,7.65,7.65,0,0,0,0,9.93,7.65,7.65,0,0,1,0,9.93,7.65,7.65,0,0,0,0,9.93,7.65,7.65,0,0,1,0,9.93,7.64,7.64,0,0,0,0,9.92,7.65,7.65,0,0,1,0,9.93,7.65,7.65,0,0,0,0,9.93,7.65,7.65,0,0,1,0,9.93,7.65,7.65,0,0,0,0,9.93,7.65,7.65,0,0,1,0,9.93,7.65,7.65,0,0,0,0,9.93,7.64,7.64,0,0,1,0,9.92,7.65,7.65,0,0,0,0,9.93,7.65,7.65,0,0,1,0,9.93,7.65,7.65,0,0,0,0,9.93,7.65,7.65,0,0,1,0,9.93,7.65,7.65,0,0,0,0,9.93,7.65,7.65,0,0,1,0,9.93,7.64,7.64,0,0,0,0,9.92,7.65,7.65,0,0,1,0,9.93,7.65,7.65,0,0,0,0,9.93,7.65,7.65,0,0,1,0,9.93,7.65,7.65,0,0,0,0,9.93,7.65,7.65,0,0,1,0,9.93,7.65,7.65,0,0,0,0,9.93,7.64,7.64,0,0,1,0,9.92,7.65,7.65,0,0,0,0,9.93"/><rect class="cls-3" x="18.43" y="42.46" width="24.05" height="604.18"/></svg>