<svg id="Calque_1" data-name="Calque 1" xmlns="http://www.w3.org/2000/svg" viewBox="0 0 242.35 245.76"><defs><style>.cls-1{fill:blue;}.cls-2{font-size:19px;font-family:SportingGrotesque-Gras, Sporting Grotesque;}.cls-2,.cls-3{fill:#eae2e4;}</style></defs><circle class="cls-1" cx="123.03" cy="126.36" r="73"/><text class="cls-2" transform="matrix(0.49, -0.87, 0.87, 0.49, 74.89, 114.66)">W</text><text class="cls-2" transform="matrix(0.79, -0.61, 0.61, 0.79, 87.84, 93.37)">o</text><text class="cls-2" transform="translate(99.43 84.63) rotate(-23.02)">r</text><text class="cls-2" transform="translate(108.66 80.45) rotate(-9.27)">k</text><text class="cls-2" transform="translate(121.13 78.32) rotate(5.62)">s</text><text class="cls-2" transform="translate(133.58 79.26) rotate(21.87)">h</text><text class="cls-2" transform="translate(147.15 84.58) rotate(39.19)">o</text><text class="cls-2" transform="translate(158.44 93.61) rotate(56.3)">p</text><path class="cls-3" d="M143.55,149.44l-.09-.14-13.74-16.66v-23a1,1,0,0,0-1-1H117.34a1,1,0,0,0-1,1v23L102.6,149.3l-.09.14a7.19,7.19,0,0,0,6.22,10.78h28.6a7.19,7.19,0,0,0,6.22-10.78Zm-1.73,6.18a5.12,5.12,0,0,1-4.49,2.6h-28.6a5.19,5.19,0,0,1-4.53-7.71l13.91-16.87a1,1,0,0,0,.23-.64v-4.53l3.76,0h0a1,1,0,0,0,0-2l-3.78,0V124h5.58a1,1,0,0,0,0-2h-5.58V119.6l3.76,0h0a1,1,0,0,0,0-2l-3.78,0v-2.45h5.58a1,1,0,0,0,0-2h-5.58v-2.47h9.38V133a1,1,0,0,0,.23.64l13.91,16.87A5.1,5.1,0,0,1,141.82,155.62Z"/><path class="cls-3" d="M123,102.12a1,1,0,0,0,1-1V93.51a1,1,0,0,0-2,0v7.61A1,1,0,0,0,123,102.12Z"/><path class="cls-3" d="M117,104a1,1,0,0,0,.71.29,1,1,0,0,0,.7-.29,1,1,0,0,0,0-1.41L112.82,97a1,1,0,1,0-1.41,1.42Z"/><path class="cls-3" d="M128.35,104.32a1,1,0,0,0,.71-.29l6-6a1,1,0,1,0-1.41-1.41l-6,6a1,1,0,0,0,0,1.41A1,1,0,0,0,128.35,104.32Z"/></svg>