<svg id="Calque_1" data-name="Calque 1" xmlns="http://www.w3.org/2000/svg" viewBox="0 0 242.35 245.76"><defs><style>.cls-1{fill:blue;}.cls-2{font-size:19px;font-family:SportingGrotesque-Gras, Sporting Grotesque;}.cls-2,.cls-3{fill:#eae2e4;}</style></defs><circle class="cls-1" cx="122.64" cy="126.36" r="73"/><text class="cls-2" transform="translate(76.31 114.77) rotate(-71.88)">I</text><text class="cls-2" transform="translate(77.71 108.74) rotate(-59.3)">n</text><text class="cls-2" transform="matrix(0.73, -0.68, 0.68, 0.73, 85.2, 96.2)">s</text><text class="cls-2" transform="translate(94.13 87.49) rotate(-27.38)">e</text><text class="cls-2" transform="matrix(0.98, -0.18, 0.18, 0.98, 106.59, 80.9)">c</text><text class="cls-2" transform="translate(120.34 78.49) rotate(3.72)">t</text><text class="cls-2" transform="matrix(0.97, 0.25, -0.25, 0.97, 130.59, 79.22)"> </text><text class="cls-2" transform="translate(138.02 80.79) rotate(26.64)">s</text><text class="cls-2" transform="translate(149.19 86.45) rotate(40.17)">t</text><text class="cls-2" transform="translate(157.16 92.74) rotate(54.48)">a</text><text class="cls-2" transform="translate(165.95 103.44) rotate(75.64)">m</text><text class="cls-2" transform="matrix(-0.12, 0.99, -0.99, -0.12, 170.84, 124.59)">p</text><text class="cls-2" transform="translate(169.07 138.92) rotate(113.1)">s</text><path class="cls-3" d="M99.85,141.78l12.46-3.95.06,0,.07,0a1.17,1.17,0,0,0,.26-.17l0,0,26.84-27.24a.65.65,0,0,0,.1-.15l0,0,2-2.06a5.9,5.9,0,0,0-.06-8.33l-1.73-1.7a5.9,5.9,0,0,0-8.33.06l-2,2.07s-.06.1-.1.15h0l-26.84,27.24,0,0a1,1,0,0,0-.17.26l0,.07,0,.06-3.77,12.51a1,1,0,0,0,.26,1,1,1,0,0,0,.7.29A.79.79,0,0,0,99.85,141.78ZM112,135.46l-2.92-2.88,25.44-25.81,2.92,2.88Zm21-35.92a3.88,3.88,0,0,1,5.49,0l1.73,1.7a3.89,3.89,0,0,1,0,5.5L139,108.06l-7.27-7.16Zm-2.86,2.95,2.92,2.87-25.43,25.82-2.93-2.88Zm-26.37,27.7,3,3,.11.12h0l3.16,3.12-9.08,2.88Z"/><path class="cls-3" d="M145.73,154.79c-3.87,0-10.34,0-11.08-1.12-.15-.23,0-.77.17-1.08a20.76,20.76,0,0,1,3.42-3.85c3.15-3.12,6.4-6.34,5.74-8.87a3.35,3.35,0,0,0-2.65-2.22c-5-1.37-12.64,2.34-20.05,5.94-3.48,1.68-6.77,3.28-9.71,4.34-3.48,1.25-6.11,1.45-7.8.58-1.54-.79-2.09-2.35-2.49-3.75a1,1,0,0,0-1.24-.69,1,1,0,0,0-.69,1.24c.35,1.21,1.07,3.73,3.51,5,2.24,1.15,5.31,1,9.39-.48,3-1.1,6.37-2.71,9.9-4.42,7.08-3.43,14.4-7,18.65-5.81.51.14,1.14.39,1.24.8.37,1.41-3.12,4.87-5.21,6.94-1.88,1.87-3.37,3.34-3.85,4.5a3.13,3.13,0,0,0,0,3c1.13,1.7,4.33,2,12.75,2a1,1,0,0,0,0-2Z"/></svg>