<svg id="Calque_1" data-name="Calque 1" xmlns="http://www.w3.org/2000/svg" viewBox="0 0 242.35 245.76"><defs><style>.cls-1{fill:blue;}.cls-2{font-size:19px;font-family:SportingGrotesque-Gras, Sporting Grotesque;}.cls-2,.cls-3{fill:#eae2e4;}</style></defs><circle class="cls-1" cx="123.09" cy="126.36" r="73"/><text class="cls-2" transform="translate(76.14 114.87) rotate(-66.46)">P</text><text class="cls-2" transform="matrix(0.66, -0.75, 0.75, 0.66, 82.31, 100.69)">a</text><text class="cls-2" transform="translate(91.23 90.15) rotate(-32.28)">p</text><text class="cls-2" transform="translate(103.37 82.36) rotate(-15.19)">e</text><text class="cls-2" transform="matrix(1, -0.02, 0.02, 1, 117.01, 78.83)">r</text><text class="cls-2" transform="matrix(0.99, 0.17, -0.17, 0.99, 127.27, 78.74)"> </text><text class="cls-2" transform="translate(134.81 79.56) rotate(23.21)">d</text><text class="cls-2" transform="translate(148.08 85.13) rotate(40.17)">e</text><text class="cls-2" transform="translate(158.87 94.24) rotate(55.98)">s</text><text class="cls-2" transform="translate(165.73 104.87) rotate(67.16)">i</text><text class="cls-2" transform="translate(168.48 110.13) rotate(79.15)">g</text><text class="cls-2" transform="translate(171.26 123.68) rotate(95.98)">n</text><path class="cls-3" d="M140.17,108.52a1.94,1.94,0,1,0-1.38-.58A1.92,1.92,0,0,0,140.17,108.52Zm0-2,.08.1a.07.07,0,0,1-.09,0Z"/><path class="cls-3" d="M144.09,150.74H102.73l10-9.88.41.42a1,1,0,0,0,.71.3h0a1,1,0,0,0,.71-.29L145,111.16a6.37,6.37,0,0,0,.05-9l-.41-.41a6.31,6.31,0,0,0-4.49-1.89h0a6.32,6.32,0,0,0-4.48,1.84l-30.45,30.12a1,1,0,0,0,0,1.42l.35.35-5.94,5.89a1,1,0,0,0-.3.71v11.48s0,.05,0,.08a1.07,1.07,0,0,0,.17.53l0,0a.93.93,0,0,0,.16.18l.09.06a1,1,0,0,0,.54.18h43.82a1,1,0,1,0,0-2ZM137,103.11a4.38,4.38,0,0,1,3.08-1.26h0a4.28,4.28,0,0,1,3.08,1.3l.41.4a4.39,4.39,0,0,1,0,6.19l-29.74,29.42-6.56-6.63ZM101.29,140.6l5.65-5.6,4.39,4.44-10,9.91Z"/></svg>