<svg id="Calque_1" data-name="Calque 1" xmlns="http://www.w3.org/2000/svg" viewBox="0 0 242.35 245.76"><defs><style>.cls-1{fill:blue;}.cls-2{font-size:19px;font-family:SportingGrotesque-Gras, Sporting Grotesque;}.cls-2,.cls-3{fill:#eae2e4;}</style></defs><circle class="cls-1" cx="123.02" cy="126.36" r="73"/><text class="cls-2" transform="translate(76.04 114.86) rotate(-66.24)">T</text><text class="cls-2" transform="matrix(0.63, -0.78, 0.78, 0.63, 81.3, 102.21)">e</text><text class="cls-2" transform="matrix(0.8, -0.6, 0.6, 0.8, 90.32, 91.32)">r</text><text class="cls-2" transform="translate(98.43 85.21) rotate(-24.39)">r</text><text class="cls-2" transform="translate(107.48 80.71) rotate(-9.81)">e</text><text class="cls-2" transform="translate(121.51 78.59) rotate(3.08)"> </text><text class="cls-2" transform="matrix(0.95, 0.31, -0.31, 0.95, 129.08, 78.18)">U</text><text class="cls-2" transform="matrix(0.8, 0.6, -0.6, 0.8, 145.95, 83.97)">g</text><text class="cls-2" transform="translate(157.08 92.2) rotate(54.03)">o</text><path class="cls-3" d="M145.47,117.56l5.58-5.58a1,1,0,0,0-.43-1.67l-21.31-6.17a1,1,0,0,0-1,.25L123,109.7l-5.31-5.31a1,1,0,0,0-1-.25l-21.31,6.17a1,1,0,0,0-.69.71,1,1,0,0,0,.26,1l5.58,5.58L95,123.14a1,1,0,0,0-.26,1,1,1,0,0,0,.69.71l5.21,1.51v19.54a1,1,0,0,0,.72,1L122.66,153a1,1,0,0,0,.56,0l21.31-6.17a1,1,0,0,0,.72-1V126.36l5.37-1.56a1,1,0,0,0,.69-.71,1,1,0,0,0-.26-1Zm-22.45-5,17.44,5-17.44,5-17.44-5ZM97.6,123.35l4.63-4.52,19.12,5.42-4.63,4.64Zm31.73-17.12,19.11,5.53-4.67,4.67-19.12-5.53Zm-12.61,0,4.67,4.67-19.12,5.53-4.67-4.67Zm-14.09,20.66,14.1,4.09a1.27,1.27,0,0,0,.28,0,1,1,0,0,0,.7-.29l4.23-4.23v24.2l-19.31-5.59Zm40.62,18.21-19.31,5.59V126.33l4.39,4.39a1,1,0,0,0,.71.29,1.24,1.24,0,0,0,.27,0l13.94-4Zm-13.92-16.21-4.68-4.67,19-5.52,4.74,4.65Z"/></svg>