<svg id="Calque_1" data-name="Calque 1" xmlns="http://www.w3.org/2000/svg" viewBox="0 0 242.35 245.76"><defs><style>.cls-1{fill:blue;}.cls-2{font-size:19px;font-family:SportingGrotesque-Gras, Sporting Grotesque;}.cls-2,.cls-3{fill:#eae2e4;}</style></defs><circle class="cls-1" cx="123.02" cy="126.36" r="73"/><text class="cls-2" transform="translate(75.16 114.74) rotate(-61.64)">M</text><text class="cls-2" transform="matrix(0.77, -0.63, 0.63, 0.77, 87.08, 94.24)">e</text><text class="cls-2" transform="translate(98.11 85.41) rotate(-24.86)">r</text><text class="cls-2" transform="translate(107.14 80.85) rotate(-10.4)">g</text><text class="cls-2" transform="translate(120.74 78.28) rotate(5.6)">y</text><path class="cls-3" d="M108,105.73a1,1,0,0,1-.55-1.83,15.4,15.4,0,0,1,2.15-1.14A33.19,33.19,0,0,1,121,99.91a35,35,0,0,1,17.76,3.82,1,1,0,0,1,.45,1.34,1,1,0,0,1-1.34.45,32.89,32.89,0,0,0-16.74-3.61,31.07,31.07,0,0,0-10.79,2.67,13.21,13.21,0,0,0-1.87,1A1,1,0,0,1,108,105.73Z"/><path class="cls-3" d="M128.78,151.83a1.25,1.25,0,0,1-.32-.05,22.86,22.86,0,0,1-7.49-4,17,17,0,0,1-4.15-5l-1.11-2.21.07-.05c0-.1,0-.19-.07-.27a16.55,16.55,0,0,1-.64-2.38q0-.19-.06-.36h-.08l-.11-1a.86.86,0,0,1,0-.16q0-.15,0-.27a11.84,11.84,0,0,1,1.12-5.78c2-3.31,4.93-4.83,8-4.19a8.5,8.5,0,0,1,4.65,2.94,28.59,28.59,0,0,1,3.38,6.4c.12.29.22.52.29.67a4.48,4.48,0,0,0,3,2.47,5.35,5.35,0,0,0,6.16-1.88c2.55-3.06,1.42-7.66.82-9.5a19.54,19.54,0,0,0-3.28-5.84,17.17,17.17,0,0,0-5.62-4.78,21.23,21.23,0,0,0-18.65-.72,18,18,0,0,0-9.36,9.19,21.33,21.33,0,0,0-1.42,10.39,27.11,27.11,0,0,0,1.31,6.29,1.52,1.52,0,0,1,.18.71,1,1,0,0,1-2,.15l-.07-.14a29.37,29.37,0,0,1-1.43-6.82,23.48,23.48,0,0,1,1.56-11.36,20.06,20.06,0,0,1,10.38-10.23,23.22,23.22,0,0,1,20.41.77,19.26,19.26,0,0,1,6.27,5.31,21.94,21.94,0,0,1,3.6,6.45c1.5,4.56,1.06,8.71-1.19,11.41a7.32,7.32,0,0,1-8.25,2.52A6.44,6.44,0,0,1,130.4,137l-.3-.72a28,28,0,0,0-3.09-5.91,6.54,6.54,0,0,0-3.51-2.24c-3-.62-5,1.77-5.89,3.26a10.2,10.2,0,0,0-.84,4.56V136c0,.07,0,.14,0,.19a1.53,1.53,0,0,1,.08.41c0,.35.1.64.15,1a14.62,14.62,0,0,0,.58,2.14,3,3,0,0,0,.17.53l.79,1.64a14.82,14.82,0,0,0,3.67,4.39,20.68,20.68,0,0,0,6.85,3.6,1,1,0,0,1-.32,2Z"/><path class="cls-3" d="M100.57,119.47a1,1,0,0,1-.53-.15,1,1,0,0,1-.31-1.39,24.84,24.84,0,0,1,4.37-4.87,29.31,29.31,0,0,1,11-6.06,30.49,30.49,0,0,1,9.71-.94,28,28,0,0,1,9.91,2.32,28.32,28.32,0,0,1,11.55,9.51,1,1,0,0,1-1.62,1.17,26.33,26.33,0,0,0-10.74-8.85,26,26,0,0,0-9.19-2.15,28.31,28.31,0,0,0-9.08.87,27.31,27.31,0,0,0-10.23,5.63,22.51,22.51,0,0,0-4,4.45A1,1,0,0,1,100.57,119.47Z"/><path class="cls-3" d="M135.26,147.33a14.93,14.93,0,0,1-4.46-.62,13.55,13.55,0,0,1-7.85-6.52,13.71,13.71,0,0,1-2-7,1,1,0,0,1,1-1,1,1,0,0,1,1,1,12,12,0,0,0,1.72,6,11.59,11.59,0,0,0,6.69,5.59,17.35,17.35,0,0,0,7,.33,1,1,0,1,1,.2,2A30.75,30.75,0,0,1,135.26,147.33Z"/><path class="cls-3" d="M116.86,152.87a1,1,0,0,1-.69-.28,25.79,25.79,0,0,1-7.83-14.69,17.13,17.13,0,0,1,1.08-9.4,15.59,15.59,0,0,1,25.9-3.25,14.05,14.05,0,0,1,3.23,9.15,1,1,0,0,1-1,1,1,1,0,0,1-1-1,12,12,0,0,0-2.81-7.83,13.66,13.66,0,0,0-12.19-4.63,13.37,13.37,0,0,0-10.31,7.43,15.23,15.23,0,0,0-.93,8.32,23.78,23.78,0,0,0,7.23,13.53,1,1,0,0,1-.69,1.72Z"/></svg>