<svg id="Calque_1" data-name="Calque 1" xmlns="http://www.w3.org/2000/svg" viewBox="0 0 242.35 245.76"><defs><style>.cls-1{fill:blue;}.cls-2{font-size:19px;font-family:SportingGrotesque-Gras, Sporting Grotesque;}.cls-2,.cls-3{fill:#eae2e4;}</style></defs><circle class="cls-1" cx="123.02" cy="126.36" r="73"/><text class="cls-2" transform="matrix(0.41, -0.91, 0.91, 0.41, 75.97, 114.85)">B</text><text class="cls-2" transform="translate(83.09 99.85) rotate(-49.89)">r</text><text class="cls-2" transform="matrix(0.81, -0.58, 0.58, 0.81, 89.32, 91.89)">è</text><text class="cls-2" transform="matrix(0.95, -0.33, 0.33, 0.95, 100.75, 83.65)">v</text><text class="cls-2" transform="translate(113.31 79.13) rotate(-2.65)">e</text><text class="cls-2" transform="translate(127.51 78.77) rotate(10.26)"> </text><text class="cls-2" transform="translate(135.03 79.66) rotate(23.37)">é</text><text class="cls-2" transform="translate(148.01 85.15) rotate(40.07)">c</text><text class="cls-2" transform="matrix(0.55, 0.84, -0.84, 0.55, 158.76, 93.96)">o</text><text class="cls-2" transform="translate(166.4 106.41) rotate(69.23)">l</text><text class="cls-2" transform="translate(169.01 111.76) rotate(81.61)">o</text><text class="cls-2" transform="matrix(-0.15, 0.99, -0.99, -0.15, 171.21, 126.06)">g</text><text class="cls-2" transform="translate(168.83 139.85) rotate(110.35)">i</text><text class="cls-2" transform="translate(167.27 145.59) rotate(122.66)">q</text><text class="cls-2" transform="translate(159.62 157.8) rotate(139.87)">u</text><text class="cls-2" transform="translate(148.54 167.27) rotate(156.94)">e</text><path class="cls-3" d="M144.38,104h-40a1.68,1.68,0,1,1,0-3.36h40a1,1,0,0,0,0-2h-40a3.7,3.7,0,0,0-3.53,2.63,1,1,0,0,0-.15.53v47.25a5,5,0,0,0,5,5h38.7a1,1,0,0,0,1-1V105A1,1,0,0,0,144.38,104Zm-1,48.06h-37.7a3,3,0,0,1-3-3V105.61a3.62,3.62,0,0,0,1.68.4h39Z"/><path class="cls-3" d="M111.51,115.05h23a1,1,0,0,0,0-2h-23a1,1,0,0,0,0,2Z"/><path class="cls-3" d="M111.51,120.24h23a1,1,0,0,0,0-2h-23a1,1,0,0,0,0,2Z"/></svg>