<svg id="Calque_1" data-name="Calque 1" xmlns="http://www.w3.org/2000/svg" viewBox="0 0 190.31 185.23"><defs><style>.cls-1{fill:#1d1d1b;}</style></defs><path class="cls-1" d="M109.6,139.77v11q-9.84,3.88-17.69,3.89A40.51,40.51,0,0,1,74,150.82v-8.54q-2.67-2.9-6-6.78a59.36,59.36,0,0,1-4.5-22.87V109a17.39,17.39,0,0,1-1.07-5.19,7.84,7.84,0,0,1,1.49-5.22,5.49,5.49,0,0,1,4.38-1.71,15.34,15.34,0,0,1,3.51.68,19.51,19.51,0,0,1-.92-5c0-2.8.68-4.88,2-6.25s3.35-2.06,6-2.06q3.51,0,6.63,4.19c-.05-1.29-.08-2.32-.08-3.09s0-1.52,0-2.55L76.89,50.73q-2.6-9.54-2.59-12.2,0-4,2.13-6t6.32-2q6.54,0,9.74,13.34l8.45,34.68,8.63-26.3q5-15.09,11.15-15.09a7,7,0,0,1,5.08,2.06,6.77,6.77,0,0,1,2.1,5q0,3.14-2.6,12.9l-7.62,29.06a140.4,140.4,0,0,1,.61,15.07l.08,3.27a46.77,46.77,0,0,1,2.85,11.74A115.88,115.88,0,0,1,109.6,139.77ZM76.59,110l-2-4.58q-2.13-5-5-5a3.57,3.57,0,0,0-2.56.84,3.46,3.46,0,0,0-.87,2.59q0,1.45,1.75,5.65l2.9,6.86c1.52,3.61,3.23,5.41,5.11,5.41a2.92,2.92,0,0,0,2.4-1,4.56,4.56,0,0,0,.8-2.9C79.11,116.18,78.27,113.57,76.59,110Zm29.58,28.28a92.93,92.93,0,0,0,10.14-19.67q.38-1,1.14-2.82c-.35-1.26-.61-2.2-.76-2.81A63.26,63.26,0,0,0,104.8,89.36L89.32,87.3q0,10.62,13.5,11.3c-.11,1.68-.16,3.05-.16,4.12a60.73,60.73,0,0,0,1.07,10.75H100a42.57,42.57,0,0,1-1.06-9.53v-1.6A22,22,0,0,1,90,98.6l3,7.32a17.63,17.63,0,0,1,1.45,6c0,2.8-.64,4.89-1.91,6.29s-3.2,2.1-5.79,2.1a9.12,9.12,0,0,1-4.65-1.68A9.15,9.15,0,0,1,80,123.91a5.94,5.94,0,0,1-4.5,1.75q-3.51,0-6.1-4.27l-1.68-2.74a89.27,89.27,0,0,0,2.59,12.88c.16.46.36,1.1.61,1.91l7,8v6.79a45.69,45.69,0,0,0,14.48,2.59,40.28,40.28,0,0,0,13.8-2.59ZM87.32,102.45,84.18,94.7Q81.51,88,78.67,88a3.84,3.84,0,0,0-3,1.18,5.25,5.25,0,0,0-1,3.54,19.6,19.6,0,0,0,1.84,7.45l3,7.22q3.84,9,7.43,9a3.74,3.74,0,0,0,2.88-1,4.22,4.22,0,0,0,1-3Q90.69,110.06,87.32,102.45ZM97.74,80.84l-9-36.67Q86.33,34,82.45,34a4.38,4.38,0,0,0-3.31,1.15A4.77,4.77,0,0,0,78,38.61a14.79,14.79,0,0,0,.61,3.58l.61,2.51c.35,1.48.63,2.57.83,3.28L89.5,83.51,106.63,86a53.25,53.25,0,0,1,7.77,11.25v-12l7.46-29.28q2.3-8.93,2.3-11.75a3.27,3.27,0,0,0-.84-2.47,3.63,3.63,0,0,0-2.6-.81,3.72,3.72,0,0,0-3.33,1.91q-1.19,1.91-3.79,9.68l-9.87,29Z"/></svg>