<svg id="Calque_1" data-name="Calque 1" xmlns="http://www.w3.org/2000/svg" xmlns:xlink="http://www.w3.org/1999/xlink" viewBox="0 0 362.21 377.44"><defs><style>.cls-1{fill:none;}.cls-10,.cls-11,.cls-12,.cls-13,.cls-14,.cls-15,.cls-16,.cls-17,.cls-18,.cls-19,.cls-2,.cls-20,.cls-21,.cls-22,.cls-23,.cls-24,.cls-25,.cls-26,.cls-27,.cls-28,.cls-29,.cls-3,.cls-30,.cls-31,.cls-32,.cls-4,.cls-6,.cls-7,.cls-8,.cls-9{fill:#1d1d1b;}.cls-3{font-size:19.2px;}.cls-10,.cls-11,.cls-12,.cls-13,.cls-14,.cls-15,.cls-16,.cls-17,.cls-18,.cls-19,.cls-20,.cls-21,.cls-22,.cls-23,.cls-24,.cls-25,.cls-26,.cls-27,.cls-28,.cls-29,.cls-3,.cls-30,.cls-31,.cls-32,.cls-4,.cls-6,.cls-7,.cls-8,.cls-9{font-family:SportingGrotesque-Gras, Sporting Grotesque;}.cls-4{font-size:19.2px;}.cls-5{clip-path:url(#clip-path);}.cls-6{font-size:19.2px;}.cls-7{font-size:19.2px;}.cls-8{font-size:19.2px;}.cls-9{font-size:19.2px;}.cls-10{font-size:19.2px;}.cls-11{font-size:19.2px;}.cls-12{font-size:19.2px;}.cls-13{font-size:19.2px;}.cls-14{font-size:19.2px;}.cls-15{font-size:19.2px;}.cls-16{font-size:19.2px;}.cls-17{font-size:19.2px;}.cls-18{font-size:19.2px;}.cls-19{font-size:19.2px;}.cls-20{font-size:19.2px;}.cls-21{font-size:19.2px;}.cls-22{font-size:19.2px;}.cls-23{font-size:19.2px;}.cls-24{font-size:19.2px;}.cls-25{font-size:19.2px;}.cls-26{font-size:19.2px;}.cls-27{font-size:19.2px;}.cls-28{font-size:19.2px;}.cls-29{font-size:19.2px;}.cls-30{font-size:19.2px;}.cls-31{font-size:19.2px;}.cls-32{font-size:19.2px;}</style><clipPath id="clip-path"><rect class="cls-1" x="60.72" y="66.96" width="240.78" height="243.53"/></clipPath></defs><path class="cls-2" d="M195.55,235.87v11q-9.83,3.9-17.68,3.89A40.38,40.38,0,0,1,160,246.92v-8.53q-2.67-2.89-6-6.79a59.36,59.36,0,0,1-4.5-22.87v-3.66a17.27,17.27,0,0,1-1.06-5.18,7.8,7.8,0,0,1,1.48-5.22,5.47,5.47,0,0,1,4.39-1.72,14.81,14.81,0,0,1,3.5.69,19.53,19.53,0,0,1-.91-5c0-2.79.67-4.88,2-6.25s3.34-2.06,6-2.06q3.51,0,6.63,4.19c-.05-1.28-.07-2.31-.07-3.08s0-1.52,0-2.55l-8.58-32.1q-2.58-9.53-2.58-12.19c0-2.7.71-4.7,2.13-6s3.52-2,6.31-2q6.56,0,9.74,13.34l8.45,34.69,8.63-26.3q5-15.11,11.15-15.1a7,7,0,0,1,5.08,2.06,6.81,6.81,0,0,1,2.1,5q0,3.12-2.59,12.89l-7.63,29.07a140.32,140.32,0,0,1,.61,15.06l.08,3.27a46.93,46.93,0,0,1,2.86,11.74A116,116,0,0,1,195.55,235.87Zm-33-29.81-2-4.57q-2.13-5-5-5a3.53,3.53,0,0,0-2.55.84,3.41,3.41,0,0,0-.88,2.59c0,1,.59,2.85,1.75,5.64l2.9,6.86q2.3,5.42,5.11,5.41a2.89,2.89,0,0,0,2.4-1,4.52,4.52,0,0,0,.8-2.89Q165.06,211.48,162.54,206.06Zm29.58,28.29a93.42,93.42,0,0,0,10.14-19.67q.39-1,1.14-2.82c-.35-1.27-.61-2.21-.76-2.82a63.07,63.07,0,0,0-11.89-23.57l-15.47-2.06q0,10.62,13.49,11.3-.15,2.5-.15,4.11a60.48,60.48,0,0,0,1.06,10.75H186a42.58,42.58,0,0,1-1.07-9.53v-1.6a21.87,21.87,0,0,1-8.92-3.73l3,7.31a17.63,17.63,0,0,1,1.45,6q0,4.19-1.9,6.29t-5.8,2.09a9.12,9.12,0,0,1-4.65-1.68A9.06,9.06,0,0,1,165.9,220a5.94,5.94,0,0,1-4.5,1.76q-3.51,0-6.1-4.27l-1.67-2.75a88.09,88.09,0,0,0,2.59,12.89c.15.45.35,1.09.61,1.9l7,8v6.78a45.41,45.41,0,0,0,14.48,2.59,40,40,0,0,0,13.8-2.59Zm-18.84-35.8-3.14-7.75q-2.69-6.69-5.52-6.69a3.78,3.78,0,0,0-3,1.18,5.22,5.22,0,0,0-1,3.53,19.79,19.79,0,0,0,1.84,7.45l3,7.23q3.83,9,7.43,9a3.76,3.76,0,0,0,2.87-1,4.27,4.27,0,0,0,1-3Q176.65,206.16,173.28,198.55Zm10.41-21.61-9-36.66q-2.44-10.14-6.32-10.14a4.38,4.38,0,0,0-3.3,1.14,4.75,4.75,0,0,0-1.11,3.43,15.14,15.14,0,0,0,.61,3.58l.61,2.52c.35,1.48.63,2.57.83,3.28l9.42,35.52,17.12,2.48a53.37,53.37,0,0,1,7.78,11.24v-12L207.81,152q2.31-8.93,2.3-11.74a3.28,3.28,0,0,0-.84-2.48,3.68,3.68,0,0,0-2.6-.8,3.72,3.72,0,0,0-3.33,1.9c-.79,1.28-2.05,4.5-3.79,9.69l-9.87,29Z"/><text class="cls-3" transform="translate(262.47 123.76) rotate(56.99)">A</text><text class="cls-4" transform="matrix(0.4, 0.92, -0.92, 0.4, 273.22, 141.12)">t</text><g class="cls-5"><text class="cls-6" transform="translate(277.77 151.16) rotate(73.64)">e</text><text class="cls-7" transform="translate(281.85 165.71) rotate(79.29)">l</text><text class="cls-8" transform="matrix(0.11, 0.99, -0.99, 0.11, 283.12, 172.22)">i</text><text class="cls-9" transform="translate(284.18 178.79) rotate(89.28)">e</text><text class="cls-10" transform="translate(284.26 193.9) rotate(95.01)">r</text><text class="cls-7" transform="translate(283.15 204.81) rotate(100.71)"> </text><text class="cls-6" transform="translate(281.66 213.02) rotate(106.36)">s</text></g><text class="cls-6" transform="matrix(-0.42, 0.91, -0.91, -0.42, 277.87, 225.94)">u</text><text class="cls-11" transform="translate(271.14 240.07) rotate(121.63)">r</text><text class="cls-12" transform="matrix(-0.6, 0.8, -0.8, -0.6, 265.28, 249.34)"> </text><text class="cls-13" transform="translate(260.54 256.27) rotate(135.3)">m</text><text class="cls-14" transform="translate(243.75 272.14) rotate(146.3)">e</text><text class="cls-15" transform="translate(231.06 280.36) rotate(153.27)">r</text><text class="cls-16" transform="translate(221.21 285.17) rotate(158.93)"> </text><g class="cls-5"><text class="cls-8" transform="matrix(-0.96, 0.26, -0.26, -0.96, 213.44, 288.21)">-</text><text class="cls-17" transform="translate(204.14 290.74) rotate(169.01)"> </text><text class="cls-18" transform="translate(195.98 292.8) rotate(177.8)">A</text><text class="cls-17" transform="matrix(-0.99, -0.12, 0.12, -0.99, 175.57, 293.34)">t</text><text class="cls-19" transform="translate(164.58 292.3) rotate(-166.11)">e</text></g><text class="cls-10" transform="translate(149.96 288.5) rotate(-160.36)">l</text><text class="cls-4" transform="translate(143.7 286.31) rotate(-156.09)">i</text><text class="cls-13" transform="translate(137.52 283.85) rotate(-150.47)">e</text><text class="cls-20" transform="matrix(-0.8, -0.59, 0.59, -0.8, 124.44, 276.28)">r</text><text class="cls-21" transform="translate(115.67 269.69) rotate(-138.04)"> </text><text class="cls-3" transform="translate(109.42 264.16) rotate(-132.57)">s</text><text class="cls-12" transform="translate(100.34 254.22) rotate(-124.38)">u</text><text class="cls-22" transform="matrix(-0.44, -0.9, 0.9, -0.44, 91.6, 241.23)">r</text><text class="cls-18" transform="translate(86.8 231.37) rotate(-111.96)"> </text><g class="cls-5"><text class="cls-23" transform="translate(83.29 223.74) rotate(-103.54)">m</text><text class="cls-24" transform="matrix(-0.04, -1, 1, -0.04, 78.31, 201.15)">e</text><text class="cls-10" transform="translate(77.74 186.04) rotate(-84.99)">r</text><text class="cls-25" transform="translate(78.72 175.12) rotate(-80.71)"> </text><text class="cls-26" transform="matrix(0.26, -0.97, 0.97, 0.26, 80.01, 166.87)">-</text></g><text class="cls-27" transform="translate(82.5 157.56) rotate(-70.83)"> </text><text class="cls-22" transform="matrix(0.46, -0.89, 0.89, 0.46, 84.84, 149.49)">A</text><text class="cls-8" transform="matrix(0.58, -0.81, 0.81, 0.58, 94.54, 131.53)">t</text><text class="cls-3" transform="translate(100.92 122.54) rotate(-47.43)">e</text><text class="cls-18" transform="matrix(0.76, -0.65, 0.65, 0.76, 111.32, 111.58)">l</text><text class="cls-28" transform="translate(116.35 107.26) rotate(-37.84)">i</text><text class="cls-29" transform="matrix(0.86, -0.51, 0.51, 0.86, 121.44, 102.97)">e</text><text class="cls-4" transform="translate(134.44 95.24) rotate(-23.91)">r</text><text class="cls-13" transform="translate(144.47 90.81) rotate(-18.21)"> </text><g class="cls-5"><text class="cls-30" transform="translate(152.35 88.03) rotate(-12.44)">s</text><text class="cls-29" transform="translate(165.47 84.94) rotate(-3.67)">u</text><text class="cls-29" transform="translate(181.11 83.94) rotate(3.67)">r</text><text class="cls-31" transform="matrix(0.99, 0.14, -0.14, 0.99, 192.05, 84.67)"> </text><text class="cls-8" transform="translate(200.42 85.42) rotate(16.77)">m</text></g><text class="cls-18" transform="translate(222.41 92.55) rotate(28.13)">e</text><text class="cls-32" transform="translate(235.67 99.81) rotate(35.09)">r</text><text class="cls-18" transform="matrix(0.76, 0.65, -0.65, 0.76, 244.6, 106.18)"> </text><text class="cls-17" transform="translate(250.98 111.56) rotate(46.06)">-</text></svg>