<svg id="Calque_1" data-name="Calque 1" xmlns="http://www.w3.org/2000/svg" viewBox="0 0 242.35 245.76"><defs><style>.cls-1{fill:blue;}</style></defs><path class="cls-1" d="M137.24,127.85a3.74,3.74,0,0,0-2.45.91,4.37,4.37,0,0,0-6.82-.82,4.35,4.35,0,0,0-6-1.26V116.09c3.33-2.65,8.51-7.77,8.51-13.91a6.59,6.59,0,0,0-12.28-3.31,6.58,6.58,0,0,0-12.27,3.31c0,5.7,4,10.34,7.54,13.31V128.9l-.25-.72a4.28,4.28,0,0,0-2.26-2.34,4.25,4.25,0,0,0-5.66,5.43l3.72,10,.47,1.22c1.7,4.37,3.81,9.82,6.58,12.24,2.36,2.07,5.92,2.39,9.61,2.39.83,0,1.67,0,2.51,0l2.34,0c5.48,0,9-5.18,9.8-14.67.23-2.64.68-10.37.7-10.75A3.79,3.79,0,0,0,137.24,127.85Zm-29.31-25.67a4.59,4.59,0,0,1,9.17,0,1,1,0,0,0,1,1h.21a1,1,0,0,0,1-1,4.59,4.59,0,0,1,9.17,0c0,4.64-3.61,8.75-6.54,11.33a4.23,4.23,0,0,0-8.36-.6C110.73,110.24,107.93,106.51,107.93,102.18Zm30.4,40.13c-.42,4.76-2,12.75-7.8,12.75l-2.38,0c-4.16.08-8.45.17-10.76-1.85s-4.42-7.29-6-11.46l-4.18-11.23a2.25,2.25,0,0,1,1.27-2.91,2.2,2.2,0,0,1,1.72,0,2.24,2.24,0,0,1,1.18,1.22l2.18,6.07a1,1,0,0,0,1.92-.15,1,1,0,0,0,0-.25V113.83a2.25,2.25,0,0,1,4.5,0v16.52a1,1,0,0,0,2,0,2.37,2.37,0,1,1,4.73,0V131a1,1,0,0,0,2,0,2.37,2.37,0,1,1,4.73,0l0,.62a1,1,0,0,0,2-.05,1.79,1.79,0,0,1,3.57-.06C139,131.66,138.57,139.6,138.33,142.31Z"/></svg>