<svg id="Calque_1" data-name="Calque 1" xmlns="http://www.w3.org/2000/svg" viewBox="0 0 242.35 245.76"><defs><style>.cls-1{fill:blue;}</style></defs><path class="cls-1" d="M144.38,104h-40a1.68,1.68,0,1,1,0-3.36h40a1,1,0,0,0,0-2h-40a3.7,3.7,0,0,0-3.53,2.63,1,1,0,0,0-.15.53v47.25a5,5,0,0,0,5,5h38.7a1,1,0,0,0,1-1V105A1,1,0,0,0,144.38,104Zm-1,48.06h-37.7a3,3,0,0,1-3-3V105.61a3.62,3.62,0,0,0,1.68.4h39Z"/><path class="cls-1" d="M111.51,115.05h23a1,1,0,0,0,0-2h-23a1,1,0,0,0,0,2Z"/><path class="cls-1" d="M111.51,120.24h23a1,1,0,0,0,0-2h-23a1,1,0,0,0,0,2Z"/></svg>