<?xml version="1.0" encoding="utf-8"?>
<!-- Generator: Adobe Illustrator 25.0.0, SVG Export Plug-In . SVG Version: 6.00 Build 0)  -->
<svg version="1.1" id="Calque_1" xmlns="http://www.w3.org/2000/svg" xmlns:xlink="http://www.w3.org/1999/xlink" x="0px" y="0px"
	 viewBox="0 0 468.2 205.5" style="enable-background:new 0 0 468.2 205.5;" xml:space="preserve">
<style type="text/css">
	.st0{fill:#0000FF;stroke:#0000FF;stroke-miterlimit:10;}
	.st1{font-family:'ArialMT';}
	.st2{font-size:17.4629px;}
	.st3{font-size:17.3796px;}
	.st4{font-size:17.2264px;}
	.st5{font-size:17.0589px;}
	.st6{font-size:16.9231px;}
	.st7{font-size:16.6925px;}
	.st8{font-size:16.6112px;}
	.st9{font-size:16.9485px;}
	.st10{font-size:17.2083px;}
	.st11{font-size:17.3551px;}
	.st12{font-size:17.4673px;}
	.st13{font-size:17.4898px;}
	.st14{font-size:17.1036px;}
	.st15{font-size:16.617px;}
	.st16{font-size:16.7576px;}
	.st17{font-size:17.2628px;}
	.st18{font-size:17.4694px;}
	.st19{font-size:17.4561px;}
	.st20{font-size:16.666px;}
	.st21{font-size:17.0139px;}
	.st22{font-size:16.7714px;}
	.st23{font-size:16.6118px;}
	.st24{font-size:16.9192px;}
	.st25{font-size:17.2967px;}
	.st26{font-size:17.4343px;}
	.st27{font-size:17.401px;}
	.st28{font-size:17.3042px;}
	.st29{font-size:16.6449px;}
	.st30{font-size:16.6281px;}
</style>
<text transform="matrix(0.6856 3.822819e-02 -2.621898e-02 0.9997 0.1678 14.9824)" class="st0 st1 st2">A</text>
<text transform="matrix(0.6827 0.1401 -9.606628e-02 0.9954 12.8924 15.8917)" class="st0 st1 st3">t</text>
<text transform="matrix(0.6771 0.2317 -0.1589 0.9873 19.7218 17.1314)" class="st0 st1 st4">e</text>
<text transform="matrix(0.6708 0.3033 -0.208 0.9781 28.875 20.3795)" class="st0 st1 st5">l</text>
<text transform="matrix(0.6656 0.3521 -0.2415 0.9704 32.8162 22.1973)" class="st0 st1 st6">i</text>
<text transform="matrix(0.6562 0.4242 -0.2909 0.9567 36.7346 24.1532)" class="st0 st1 st7">e</text>
<text transform="matrix(0.6528 0.4475 -0.3069 0.9517 45.3386 29.7795)" class="st0 st1 st8">r</text>
<text transform="matrix(0.6645 0.3608 -0.2474 0.9689 56.2652 37.1686)" class="st0 st1 st9">s</text>
<text transform="matrix(0.6754 0.2538 -0.1741 0.9847 64.1018 41.6049)" class="st0 st1 st10">u</text>
<text transform="matrix(0.6818 0.1582 -0.1085 0.9941 73.5775 45.0459)" class="st0 st1 st11">r</text>
<text transform="matrix(0.6858 2.251587e-02 -1.544261e-02 0.9999 85.5106 47.5254)" class="st0 st1 st12">m</text>
<text transform="matrix(0.6851 -6.991946e-02 4.795460e-02 0.9988 99.9261 47.8419)" class="st0 st1 st13">e</text>
<text transform="matrix(0.6827 -0.1401 9.606628e-02 0.9954 109.3322 46.8129)" class="st0 st1 st3">r</text>
<text transform="matrix(0.6725 -0.2858 0.196 0.9806 121.1941 43.8068)" class="st0 st1 st14">-</text>
<text transform="matrix(0.6562 -0.4242 0.2909 0.9567 131.8927 38.8807)" class="st0 st1 st7">S</text>
<text transform="matrix(0.653 -0.4458 0.3058 0.9521 141.4075 32.644)" class="st0 st1 st15">t</text>
<text transform="matrix(0.6589 -0.4048 0.2776 0.9607 147.6008 28.3283)" class="st0 st1 st16">u</text>
<text transform="matrix(0.6725 -0.2858 0.196 0.9806 156.5996 22.7383)" class="st0 st1 st14">d</text>
<text transform="matrix(0.6785 -0.2133 0.1463 0.9892 165.8849 18.9295)" class="st0 st1 st17">i</text>
<text transform="matrix(0.6827 -0.1401 9.606628e-02 0.9954 169.9238 17.5688)" class="st0 st1 st3">o</text>
<text transform="matrix(0.6858 -7.330422e-03 5.027605e-03 1 184.708 15.1904)" class="st0 st1 st18">d</text>
<text transform="matrix(0.6854 5.412074e-02 -3.711896e-02 0.9993 194.3523 15.1053)" class="st0 st1 st19">e</text>
<text transform="matrix(0.6771 0.2317 -0.1589 0.9873 208.9726 16.6597)" class="st0 st1 st4">D</text>
<text transform="matrix(0.6656 0.3521 -0.2415 0.9704 220.6295 20.7131)" class="st0 st1 st6">e</text>
<text transform="matrix(0.6551 0.4319 -0.2962 0.9551 229.4839 25.48)" class="st0 st1 st20">s</text>
<text transform="matrix(0.6528 0.4475 -0.3069 0.9517 237.1165 30.5654)" class="st0 st1 st8">i</text>
<text transform="matrix(0.6562 0.4242 -0.2909 0.9567 240.8302 33.1854)" class="st0 st1 st7">g</text>
<text transform="matrix(0.6691 0.3202 -0.2196 0.9756 249.3013 38.74)" class="st0 st1 st21">n</text>
<text transform="matrix(0.6818 0.1582 -0.1085 0.9941 263.6547 44.9243)" class="st0 st1 st11">g</text>
<text transform="matrix(0.6851 6.991946e-02 -4.795460e-02 0.9988 272.821 46.9337)" class="st0 st1 st13">r</text>
<text transform="matrix(0.6858 7.330422e-03 -5.027605e-03 1 279.6504 47.7368)" class="st0 st1 st18">a</text>
<text transform="matrix(0.6854 -5.412074e-02 3.711896e-02 0.9993 288.9117 47.8791)" class="st0 st1 st19">p</text>
<text transform="matrix(0.6827 -0.1401 9.606628e-02 0.9954 298.5473 47.0937)" class="st0 st1 st3">h</text>
<text transform="matrix(0.6771 -0.2317 0.1589 0.9873 308.2045 44.9432)" class="st0 st1 st4">i</text>
<text transform="matrix(0.6708 -0.3033 0.208 0.9781 312.2528 43.7012)" class="st0 st1 st5">q</text>
<text transform="matrix(0.6573 -0.4167 0.2858 0.9583 321.4657 39.4892)" class="st0 st1 st22">u</text>
<text transform="matrix(0.6528 -0.4473 0.3068 0.9518 330.4059 33.7627)" class="st0 st1 st23">e</text>
<text transform="matrix(0.6657 -0.3511 0.2408 0.9706 343.7043 24.8717)" class="st0 st1 st24">-</text>
<text transform="matrix(0.6797 -0.1948 0.1336 0.991 354.3093 19.4895)" class="st0 st1 st25">A</text>
<text transform="matrix(0.6846 -8.750650e-02 6.001676e-02 0.9982 366.8417 16.2407)" class="st0 st1 st26">t</text>
<text transform="matrix(0.6858 -2.251587e-02 1.544261e-02 0.9999 373.6818 15.3296)" class="st0 st1 st12">e</text>
<text transform="matrix(0.6858 2.251587e-02 -1.544261e-02 0.9999 383.1118 15.1366)" class="st0 st1 st12">l</text>
<text transform="matrix(0.6854 5.412074e-02 -3.711896e-02 0.9993 387.2441 15.2983)" class="st0 st1 st19">i</text>
<text transform="matrix(0.6834 0.1222 -8.379511e-02 0.9965 391.3789 15.4884)" class="st0 st1 st27">e</text>
<text transform="matrix(0.6786 0.212 -0.1454 0.9894 400.751 17.1816)" class="st0 st1 st28">r</text>
<text transform="matrix(0.6645 0.3608 -0.2474 0.9689 412.4664 21.2536)" class="st0 st1 st9">s</text>
<text transform="matrix(0.6542 0.4379 -0.3003 0.9538 420.3153 25.5696)" class="st0 st1 st29">u</text>
<text transform="matrix(0.6535 0.4427 -0.3036 0.9528 429.1803 31.5604)" class="st0 st1 st30">r</text>
<text transform="matrix(0.6708 0.3033 -0.208 0.9781 440.1208 38.9852)" class="st0 st1 st5">m</text>
<text transform="matrix(0.6818 0.1582 -0.1085 0.9941 453.9594 44.8375)" class="st0 st1 st11">e</text>
<text transform="matrix(0.6851 6.991946e-02 -4.795460e-02 0.9988 463.2805 46.9161)" class="st0 st1 st13">r</text>
<text transform="matrix(0.6856 3.822819e-02 -2.621898e-02 0.9997 0.168 65.6445)" class="st0 st1 st2">A</text>
<text transform="matrix(0.6827 0.1401 -9.606628e-02 0.9954 12.8924 66.5538)" class="st0 st1 st3">t</text>
<text transform="matrix(0.6771 0.2317 -0.1589 0.9873 19.7213 67.7933)" class="st0 st1 st4">e</text>
<text transform="matrix(0.6708 0.3033 -0.208 0.9781 28.8752 71.0422)" class="st0 st1 st5">l</text>
<text transform="matrix(0.6656 0.3521 -0.2415 0.9704 32.8159 72.8591)" class="st0 st1 st6">i</text>
<text transform="matrix(0.6562 0.4242 -0.2909 0.9567 36.7347 74.8153)" class="st0 st1 st7">e</text>
<text transform="matrix(0.6528 0.4475 -0.3069 0.9517 45.3383 80.4414)" class="st0 st1 st8">r</text>
<text transform="matrix(0.6645 0.3608 -0.2474 0.9689 56.2644 87.8296)" class="st0 st1 st9">s</text>
<text transform="matrix(0.6754 0.2538 -0.1741 0.9847 64.1005 92.2672)" class="st0 st1 st10">u</text>
<text transform="matrix(0.6818 0.1582 -0.1085 0.9941 73.5786 95.7087)" class="st0 st1 st11">r</text>
<text transform="matrix(0.6858 2.251587e-02 -1.544261e-02 0.9999 85.5114 98.1877)" class="st0 st1 st12">m</text>
<text transform="matrix(0.6851 -6.991946e-02 4.795460e-02 0.9988 99.9254 98.5036)" class="st0 st1 st13">e</text>
<text transform="matrix(0.6827 -0.1401 9.606628e-02 0.9954 109.3327 97.4759)" class="st0 st1 st3">r</text>
<text transform="matrix(0.6725 -0.2858 0.196 0.9806 121.1942 94.469)" class="st0 st1 st14">-</text>
<text transform="matrix(0.6562 -0.4242 0.2909 0.9567 131.893 89.5425)" class="st0 st1 st7">S</text>
<text transform="matrix(0.653 -0.4458 0.3058 0.9521 141.4076 83.3062)" class="st0 st1 st15">t</text>
<text transform="matrix(0.6589 -0.4048 0.2776 0.9607 147.6013 78.9899)" class="st0 st1 st16">u</text>
<text transform="matrix(0.6725 -0.2858 0.196 0.9806 156.6 73.4015)" class="st0 st1 st14">d</text>
<text transform="matrix(0.6785 -0.2133 0.1463 0.9892 165.8848 69.5919)" class="st0 st1 st17">i</text>
<text transform="matrix(0.6827 -0.1401 9.606628e-02 0.9954 169.9243 68.2318)" class="st0 st1 st3">o</text>
<text transform="matrix(0.6858 -7.330422e-03 5.027605e-03 1 184.7078 65.8521)" class="st0 st1 st18">d</text>
<text transform="matrix(0.6854 5.412074e-02 -3.711896e-02 0.9993 194.3519 65.7684)" class="st0 st1 st19">e</text>
<text transform="matrix(0.6771 0.2317 -0.1589 0.9873 208.9721 67.3217)" class="st0 st1 st4">D</text>
<text transform="matrix(0.6656 0.3521 -0.2415 0.9704 220.6291 71.3754)" class="st0 st1 st6">e</text>
<text transform="matrix(0.6551 0.4319 -0.2962 0.9551 229.4843 76.1425)" class="st0 st1 st20">s</text>
<text transform="matrix(0.6528 0.4475 -0.3069 0.9517 237.1171 81.2274)" class="st0 st1 st8">i</text>
<text transform="matrix(0.6562 0.4242 -0.2909 0.9567 240.8303 83.8475)" class="st0 st1 st7">g</text>
<text transform="matrix(0.6691 0.3202 -0.2196 0.9756 249.3022 89.4024)" class="st0 st1 st21">n</text>
<text transform="matrix(0.6818 0.1582 -0.1085 0.9941 263.655 95.5859)" class="st0 st1 st11">g</text>
<text transform="matrix(0.6851 6.991946e-02 -4.795460e-02 0.9988 272.8216 97.5954)" class="st0 st1 st13">r</text>
<text transform="matrix(0.6858 7.330422e-03 -5.027605e-03 1 279.6505 98.3981)" class="st0 st1 st18">a</text>
<text transform="matrix(0.6854 -5.412074e-02 3.711896e-02 0.9993 288.911 98.5404)" class="st0 st1 st19">p</text>
<text transform="matrix(0.6827 -0.1401 9.606628e-02 0.9954 298.5466 97.7549)" class="st0 st1 st3">h</text>
<text transform="matrix(0.6771 -0.2317 0.1589 0.9873 308.2046 95.6053)" class="st0 st1 st4">i</text>
<text transform="matrix(0.6708 -0.3033 0.208 0.9781 312.2523 94.3625)" class="st0 st1 st5">q</text>
<text transform="matrix(0.6573 -0.4167 0.2858 0.9583 321.4664 90.1522)" class="st0 st1 st22">u</text>
<text transform="matrix(0.6528 -0.4473 0.3068 0.9518 330.4055 84.4244)" class="st0 st1 st23">e</text>
<text transform="matrix(0.6657 -0.3511 0.2408 0.9706 343.7044 75.5309)" class="st0 st1 st24">-</text>
<text transform="matrix(0.6797 -0.1948 0.1336 0.991 354.3093 70.1515)" class="st0 st1 st25">A</text>
<text transform="matrix(0.6846 -8.750650e-02 6.001676e-02 0.9982 366.8422 66.9024)" class="st0 st1 st26">t</text>
<text transform="matrix(0.6858 -2.251587e-02 1.544261e-02 0.9999 373.682 65.9908)" class="st0 st1 st12">e</text>
<text transform="matrix(0.6858 2.251587e-02 -1.544261e-02 0.9999 383.1105 65.7998)" class="st0 st1 st12">l</text>
<text transform="matrix(0.6854 5.412074e-02 -3.711896e-02 0.9993 387.2448 65.9605)" class="st0 st1 st19">i</text>
<text transform="matrix(0.6834 0.1222 -8.379511e-02 0.9965 391.3789 66.1504)" class="st0 st1 st27">e</text>
<text transform="matrix(0.6786 0.212 -0.1454 0.9894 400.7508 67.8438)" class="st0 st1 st28">r</text>
<text transform="matrix(0.6645 0.3608 -0.2474 0.9689 412.4664 71.9155)" class="st0 st1 st9">s</text>
<text transform="matrix(0.6542 0.4379 -0.3003 0.9538 420.3152 76.2313)" class="st0 st1 st29">u</text>
<text transform="matrix(0.6535 0.4427 -0.3036 0.9528 429.1811 82.2224)" class="st0 st1 st30">r</text>
<text transform="matrix(0.6708 0.3033 -0.208 0.9781 440.1085 89.647)" class="st0 st1 st5">m</text>
<text transform="matrix(0.6818 0.1582 -0.1085 0.9941 453.9596 95.4996)" class="st0 st1 st11">e</text>
<text transform="matrix(0.6851 6.991946e-02 -4.795460e-02 0.9988 463.2812 97.5778)" class="st0 st1 st13">r</text>
<text transform="matrix(0.6856 3.822819e-02 -2.621898e-02 0.9997 0.1673 116.3065)" class="st0 st1 st2">A</text>
<text transform="matrix(0.6827 0.1401 -9.606628e-02 0.9954 12.8914 117.2166)" class="st0 st1 st3">t</text>
<text transform="matrix(0.6771 0.2317 -0.1589 0.9873 19.7208 118.4553)" class="st0 st1 st4">e</text>
<text transform="matrix(0.6708 0.3033 -0.208 0.9781 28.8747 121.7036)" class="st0 st1 st5">l</text>
<text transform="matrix(0.6656 0.3521 -0.2415 0.9704 32.8171 123.5228)" class="st0 st1 st6">i</text>
<text transform="matrix(0.6562 0.4242 -0.2909 0.9567 36.7356 125.4779)" class="st0 st1 st7">e</text>
<text transform="matrix(0.6528 0.4475 -0.3069 0.9517 45.3388 131.1034)" class="st0 st1 st8">r</text>
<text transform="matrix(0.6645 0.3608 -0.2474 0.9689 56.2639 138.4929)" class="st0 st1 st9">s</text>
<text transform="matrix(0.6754 0.2538 -0.1741 0.9847 64.1013 142.9294)" class="st0 st1 st10">u</text>
<text transform="matrix(0.6818 0.1582 -0.1085 0.9941 73.5788 146.3712)" class="st0 st1 st11">r</text>
<text transform="matrix(0.6858 2.251587e-02 -1.544261e-02 0.9999 85.5101 148.8498)" class="st0 st1 st12">m</text>
<text transform="matrix(0.6851 -6.991946e-02 4.795460e-02 0.9988 99.9258 149.1652)" class="st0 st1 st13">e</text>
<text transform="matrix(0.6827 -0.1401 9.606628e-02 0.9954 109.3326 148.138)" class="st0 st1 st3">r</text>
<text transform="matrix(0.6725 -0.2858 0.196 0.9806 121.1938 145.1305)" class="st0 st1 st14">-</text>
<text transform="matrix(0.6562 -0.4242 0.2909 0.9567 131.8929 140.2046)" class="st0 st1 st7">S</text>
<text transform="matrix(0.653 -0.4458 0.3058 0.9521 141.4073 133.9686)" class="st0 st1 st15">t</text>
<text transform="matrix(0.6589 -0.4048 0.2776 0.9607 147.6005 129.6522)" class="st0 st1 st16">u</text>
<text transform="matrix(0.6725 -0.2858 0.196 0.9806 156.6 124.0628)" class="st0 st1 st14">d</text>
<text transform="matrix(0.6785 -0.2133 0.1463 0.9892 165.885 120.2542)" class="st0 st1 st17">i</text>
<text transform="matrix(0.6827 -0.1401 9.606628e-02 0.9954 169.9238 118.894)" class="st0 st1 st3">o</text>
<text transform="matrix(0.6858 -7.330422e-03 5.027605e-03 1 184.7076 116.5144)" class="st0 st1 st18">d</text>
<text transform="matrix(0.6854 5.412074e-02 -3.711896e-02 0.9993 194.3516 116.4305)" class="st0 st1 st19">e</text>
<text transform="matrix(0.6771 0.2317 -0.1589 0.9873 208.9715 117.9837)" class="st0 st1 st4">D</text>
<text transform="matrix(0.6656 0.3521 -0.2415 0.9704 220.6289 122.0368)" class="st0 st1 st6">e</text>
<text transform="matrix(0.6551 0.4319 -0.2962 0.9551 229.4841 126.804)" class="st0 st1 st20">s</text>
<text transform="matrix(0.6528 0.4475 -0.3069 0.9517 237.1042 131.8886)" class="st0 st1 st8">i</text>
<text transform="matrix(0.6562 0.4242 -0.2909 0.9567 240.8304 134.5095)" class="st0 st1 st7">g</text>
<text transform="matrix(0.6691 0.3202 -0.2196 0.9756 249.3012 140.0645)" class="st0 st1 st21">n</text>
<text transform="matrix(0.6818 0.1582 -0.1085 0.9941 263.6552 146.2485)" class="st0 st1 st11">g</text>
<text transform="matrix(0.6851 6.991946e-02 -4.795460e-02 0.9988 272.8202 148.2578)" class="st0 st1 st13">r</text>
<text transform="matrix(0.6858 7.330422e-03 -5.027605e-03 1 279.6497 149.0603)" class="st0 st1 st18">a</text>
<text transform="matrix(0.6854 -5.412074e-02 3.711896e-02 0.9993 288.9114 149.2035)" class="st0 st1 st19">p</text>
<text transform="matrix(0.6827 -0.1401 9.606628e-02 0.9954 298.547 148.4169)" class="st0 st1 st3">h</text>
<text transform="matrix(0.6771 -0.2317 0.1589 0.9873 308.2045 146.2665)" class="st0 st1 st4">i</text>
<text transform="matrix(0.6708 -0.3033 0.208 0.9781 312.2526 145.0256)" class="st0 st1 st5">q</text>
<text transform="matrix(0.6573 -0.4167 0.2858 0.9583 321.4665 140.8133)" class="st0 st1 st22">u</text>
<text transform="matrix(0.6528 -0.4473 0.3068 0.9518 330.4051 135.086)" class="st0 st1 st23">e</text>
<text transform="matrix(0.6657 -0.3511 0.2408 0.9706 343.7045 126.1955)" class="st0 st1 st24">-</text>
<text transform="matrix(0.6797 -0.1948 0.1336 0.991 354.3092 120.8135)" class="st0 st1 st25">A</text>
<text transform="matrix(0.6846 -8.750650e-02 6.001676e-02 0.9982 366.8418 117.5643)" class="st0 st1 st26">t</text>
<text transform="matrix(0.6858 -2.251587e-02 1.544261e-02 0.9999 373.6813 116.6531)" class="st0 st1 st12">e</text>
<text transform="matrix(0.6858 2.251587e-02 -1.544261e-02 0.9999 383.1103 116.461)" class="st0 st1 st12">l</text>
<text transform="matrix(0.6854 5.412074e-02 -3.711896e-02 0.9993 387.2444 116.6227)" class="st0 st1 st19">i</text>
<text transform="matrix(0.6834 0.1222 -8.379511e-02 0.9965 391.378 116.8123)" class="st0 st1 st27">e</text>
<text transform="matrix(0.6786 0.212 -0.1454 0.9894 400.7496 118.5058)" class="st0 st1 st28">r</text>
<text transform="matrix(0.6645 0.3608 -0.2474 0.9689 412.4663 122.5775)" class="st0 st1 st9">s</text>
<text transform="matrix(0.6542 0.4379 -0.3003 0.9538 420.315 126.8934)" class="st0 st1 st29">u</text>
<text transform="matrix(0.6535 0.4427 -0.3036 0.9528 429.181 132.8844)" class="st0 st1 st30">r</text>
<text transform="matrix(0.6708 0.3033 -0.208 0.9781 440.1206 140.3093)" class="st0 st1 st5">m</text>
<text transform="matrix(0.6818 0.1582 -0.1085 0.9941 453.9589 146.1615)" class="st0 st1 st11">e</text>
<text transform="matrix(0.6851 6.991946e-02 -4.795460e-02 0.9988 463.2808 148.2394)" class="st0 st1 st13">r</text>
<text transform="matrix(0.6856 3.822819e-02 -2.621898e-02 0.9997 0.1675 166.9686)" class="st0 st1 st2">A</text>
<text transform="matrix(0.6827 0.1401 -9.606628e-02 0.9954 12.8926 167.8779)" class="st0 st1 st3">t</text>
<text transform="matrix(0.6771 0.2317 -0.1589 0.9873 19.7222 169.1174)" class="st0 st1 st4">e</text>
<text transform="matrix(0.6708 0.3033 -0.208 0.9781 28.875 172.3664)" class="st0 st1 st5">l</text>
<text transform="matrix(0.6656 0.3521 -0.2415 0.9704 32.817 174.1842)" class="st0 st1 st6">i</text>
<text transform="matrix(0.6562 0.4242 -0.2909 0.9567 36.7348 176.1394)" class="st0 st1 st7">e</text>
<text transform="matrix(0.6528 0.4475 -0.3069 0.9517 45.3384 181.7656)" class="st0 st1 st8">r</text>
<text transform="matrix(0.6645 0.3608 -0.2474 0.9689 56.2651 189.1539)" class="st0 st1 st9">s</text>
<text transform="matrix(0.6754 0.2538 -0.1741 0.9847 64.1011 193.5916)" class="st0 st1 st10">u</text>
<text transform="matrix(0.6818 0.1582 -0.1085 0.9941 73.5781 197.0326)" class="st0 st1 st11">r</text>
<text transform="matrix(0.6858 2.251587e-02 -1.544261e-02 0.9999 85.5109 199.5121)" class="st0 st1 st12">m</text>
<text transform="matrix(0.6851 -6.991946e-02 4.795460e-02 0.9988 99.9252 199.8269)" class="st0 st1 st13">e</text>
<text transform="matrix(0.6827 -0.1401 9.606628e-02 0.9954 109.3326 198.8)" class="st0 st1 st3">r</text>
<text transform="matrix(0.6725 -0.2858 0.196 0.9806 121.1941 195.7937)" class="st0 st1 st14">-</text>
<text transform="matrix(0.6562 -0.4242 0.2909 0.9567 131.8929 190.8667)" class="st0 st1 st7">S</text>
<text transform="matrix(0.653 -0.4458 0.3058 0.9521 141.4074 184.6307)" class="st0 st1 st15">t</text>
<text transform="matrix(0.6589 -0.4048 0.2776 0.9607 147.6005 180.3141)" class="st0 st1 st16">u</text>
<text transform="matrix(0.6725 -0.2858 0.196 0.9806 156.6002 174.725)" class="st0 st1 st14">d</text>
<text transform="matrix(0.6785 -0.2133 0.1463 0.9892 165.8848 170.9166)" class="st0 st1 st17">i</text>
<text transform="matrix(0.6827 -0.1401 9.606628e-02 0.9954 169.9242 169.556)" class="st0 st1 st3">o</text>
<text transform="matrix(0.6858 -7.330422e-03 5.027605e-03 1 184.7075 167.1766)" class="st0 st1 st18">d</text>
<text transform="matrix(0.6854 5.412074e-02 -3.711896e-02 0.9993 194.3523 167.0918)" class="st0 st1 st19">e</text>
<text transform="matrix(0.6771 0.2317 -0.1589 0.9873 208.9729 168.6463)" class="st0 st1 st4">D</text>
<text transform="matrix(0.6656 0.3521 -0.2415 0.9704 220.6303 172.7)" class="st0 st1 st6">e</text>
<text transform="matrix(0.6551 0.4319 -0.2962 0.9551 229.4845 177.4665)" class="st0 st1 st20">s</text>
<text transform="matrix(0.6528 0.4475 -0.3069 0.9517 237.1046 182.5511)" class="st0 st1 st8">i</text>
<text transform="matrix(0.6562 0.4242 -0.2909 0.9567 240.8305 185.1716)" class="st0 st1 st7">g</text>
<text transform="matrix(0.6691 0.3202 -0.2196 0.9756 249.3021 190.7269)" class="st0 st1 st21">n</text>
<text transform="matrix(0.6818 0.1582 -0.1085 0.9941 263.6555 196.9101)" class="st0 st1 st11">g</text>
<text transform="matrix(0.6851 6.991946e-02 -4.795460e-02 0.9988 272.8218 198.9196)" class="st0 st1 st13">r</text>
<text transform="matrix(0.6858 7.330422e-03 -5.027605e-03 1 279.6499 199.7231)" class="st0 st1 st18">a</text>
<text transform="matrix(0.6854 -5.412074e-02 3.711896e-02 0.9993 288.9107 199.8657)" class="st0 st1 st19">p</text>
<text transform="matrix(0.6827 -0.1401 9.606628e-02 0.9954 298.5465 199.0791)" class="st0 st1 st3">h</text>
<text transform="matrix(0.6771 -0.2317 0.1589 0.9873 308.2046 196.9286)" class="st0 st1 st4">i</text>
<text transform="matrix(0.6708 -0.3033 0.208 0.9781 312.2533 195.6884)" class="st0 st1 st5">q</text>
<text transform="matrix(0.6573 -0.4167 0.2858 0.9583 321.4658 191.4749)" class="st0 st1 st22">u</text>
<text transform="matrix(0.6528 -0.4473 0.3068 0.9518 330.4051 185.7474)" class="st0 st1 st23">e</text>
<text transform="matrix(0.6657 -0.3511 0.2408 0.9706 343.7046 176.8568)" class="st0 st1 st24">-</text>
<text transform="matrix(0.6797 -0.1948 0.1336 0.991 354.3091 171.4745)" class="st0 st1 st25">A</text>
<text transform="matrix(0.6846 -8.750650e-02 6.001676e-02 0.9982 366.8413 168.2261)" class="st0 st1 st26">t</text>
<text transform="matrix(0.6858 -2.251587e-02 1.544261e-02 0.9999 373.6815 167.3153)" class="st0 st1 st12">e</text>
<text transform="matrix(0.6858 2.251587e-02 -1.544261e-02 0.9999 383.111 167.1232)" class="st0 st1 st12">l</text>
<text transform="matrix(0.6854 5.412074e-02 -3.711896e-02 0.9993 387.2441 167.2838)" class="st0 st1 st19">i</text>
<text transform="matrix(0.6834 0.1222 -8.379511e-02 0.9965 391.3779 167.4753)" class="st0 st1 st27">e</text>
<text transform="matrix(0.6786 0.212 -0.1454 0.9894 400.7503 169.1684)" class="st0 st1 st28">r</text>
<text transform="matrix(0.6645 0.3608 -0.2474 0.9689 412.4671 173.2398)" class="st0 st1 st9">s</text>
<text transform="matrix(0.6542 0.4379 -0.3003 0.9538 420.3149 177.5551)" class="st0 st1 st29">u</text>
<text transform="matrix(0.6535 0.4427 -0.3036 0.9528 429.1817 183.5468)" class="st0 st1 st30">r</text>
<text transform="matrix(0.6708 0.3033 -0.208 0.9781 440.1091 190.9721)" class="st0 st1 st5">m</text>
<text transform="matrix(0.6818 0.1582 -0.1085 0.9941 453.9592 196.8231)" class="st0 st1 st11">e</text>
<text transform="matrix(0.6851 6.991946e-02 -4.795460e-02 0.9988 463.2815 198.9011)" class="st0 st1 st13">r</text>
</svg>
