<svg id="Calque_1" data-name="Calque 1" xmlns="http://www.w3.org/2000/svg" viewBox="0 0 468.16 205.53"><defs><style>.cls-1{font-size:10px;}.cls-1,.cls-10,.cls-11,.cls-12,.cls-13,.cls-14,.cls-15,.cls-16,.cls-17,.cls-18,.cls-19,.cls-2,.cls-20,.cls-21,.cls-22,.cls-23,.cls-24,.cls-25,.cls-26,.cls-27,.cls-28,.cls-29,.cls-3,.cls-30,.cls-31,.cls-32,.cls-33,.cls-34,.cls-35,.cls-36,.cls-37,.cls-4,.cls-5,.cls-6,.cls-7,.cls-8,.cls-9{fill:blue;font-family:SportingGrotesque-Gras, Sporting Grotesque;}.cls-2{font-size:10px;}.cls-3{font-size:10px;}.cls-4{font-size:10px;}.cls-5{font-size:10px;}.cls-6{font-size:10px;}.cls-7{font-size:10px;}.cls-8{font-size:10px;}.cls-9{font-size:10px;}.cls-10{font-size:10px;}.cls-11{font-size:10px;}.cls-12{font-size:10px;}.cls-13{font-size:10px;}.cls-14{font-size:10px;}.cls-15{font-size:10px;}.cls-16{font-size:10px;}.cls-17{font-size:10px;}.cls-18{font-size:10px;}.cls-19{font-size:10px;}.cls-20{font-size:10px;}.cls-21{font-size:10px;}.cls-22{font-size:10px;}.cls-23{font-size:10px;}.cls-24{font-size:10px;}.cls-25{font-size:10px;}.cls-26{font-size:10px;}.cls-27{font-size:10px;}.cls-28{font-size:10px;}.cls-29{font-size:10px;}.cls-30{font-size:10px;}.cls-31{font-size:10px;}.cls-32{font-size:10px;}.cls-33{font-size:10px;}.cls-34{font-size:10px;}.cls-35{font-size:10px;}.cls-36{font-size:10px;}.cls-37{font-size:10px;}</style></defs><text class="cls-1" transform="translate(37.76 51.5) rotate(2.19)">A</text><text class="cls-2" transform="translate(48.38 52.02) rotate(8.01)">t</text><text class="cls-3" transform="translate(54.08 52.73) rotate(13.21)">e</text><text class="cls-4" transform="translate(61.72 54.59) rotate(17.23)">l</text><text class="cls-5" transform="translate(65.01 55.63) rotate(19.94)">i</text><text class="cls-6" transform="translate(68.28 56.75) rotate(23.91)">e</text><text class="cls-7" transform="translate(75.46 59.97) rotate(25.18)">r</text><text class="cls-6" transform="translate(80.63 62.4) rotate(23.91)"> </text><text class="cls-8" transform="matrix(0.94, 0.35, -0.35, 0.94, 84.58, 64.2)">s</text><text class="cls-9" transform="matrix(0.97, 0.25, -0.25, 0.97, 91.12, 66.74)">u</text><text class="cls-10" transform="translate(99.03 68.71) rotate(9.04)">r</text><text class="cls-11" transform="translate(104.67 69.57) rotate(5.99)"> </text><text class="cls-12" transform="translate(108.99 70.13) rotate(1.29)">m</text><text class="cls-2" transform="matrix(1, -0.07, 0.07, 1, 121.02, 70.31)">e</text><text class="cls-13" transform="translate(128.87 69.72) rotate(-8.01)">r</text><text class="cls-14" transform="translate(134.52 68.89) rotate(-12.17)"> </text><text class="cls-15" transform="translate(138.77 68) rotate(-16.25)">-</text><text class="cls-16" transform="translate(143.59 66.6) rotate(-19.94)"> </text><text class="cls-17" transform="translate(147.7 65.18) rotate(-23.91)">S</text><text class="cls-18" transform="translate(155.64 61.61) rotate(-25.09)">t</text><text class="cls-19" transform="translate(160.81 59.14) rotate(-22.85)">u</text><text class="cls-15" transform="translate(168.32 55.94) rotate(-16.25)">d</text><text class="cls-14" transform="translate(176.07 53.76) rotate(-12.17)">i</text><text class="cls-13" transform="translate(179.44 52.98) rotate(-8.01)">o</text><text class="cls-2" transform="matrix(1, -0.07, 0.07, 1, 187.45, 51.96)"> </text><text class="cls-20" transform="translate(191.78 51.62) rotate(-0.42)">d</text><text class="cls-21" transform="translate(199.83 51.57) rotate(3.1)">e</text><text class="cls-5" transform="translate(207.68 52.1) rotate(6.99)"> </text><text class="cls-22" transform="translate(212.03 52.46) rotate(13.21)">D</text><text class="cls-5" transform="translate(221.76 54.78) rotate(19.94)">e</text><text class="cls-23" transform="translate(229.15 57.51) rotate(24.33)">s</text><text class="cls-7" transform="translate(235.52 60.42) rotate(25.18)">i</text><text class="cls-6" transform="translate(238.62 61.92) rotate(23.91)">g</text><text class="cls-24" transform="translate(245.69 65.1) rotate(18.17)">n</text><text class="cls-22" transform="translate(253.45 67.59) rotate(13.21)"> </text><text class="cls-25" transform="translate(257.67 68.64) rotate(9.04)">g</text><text class="cls-6" transform="matrix(1, 0.07, -0.07, 1, 265.32, 69.79)">r</text><text class="cls-20" transform="translate(271.02 70.25) rotate(0.42)">a</text><text class="cls-26" transform="translate(278.75 70.33) rotate(-3.1)">p</text><text class="cls-27" transform="translate(286.79 69.88) rotate(-8.01)">h</text><text class="cls-24" transform="translate(294.85 68.65) rotate(-13.21)">i</text><text class="cls-28" transform="translate(298.23 67.94) rotate(-17.23)">q</text><text class="cls-29" transform="matrix(0.92, -0.4, 0.4, 0.92, 305.92, 65.53)">u</text><text class="cls-30" transform="translate(313.38 62.25) rotate(-25.17)">e</text><text class="cls-29" transform="matrix(0.92, -0.4, 0.4, 0.92, 320.5, 58.91)"> </text><text class="cls-29" transform="matrix(0.94, -0.34, 0.34, 0.94, 324.48, 57.16)">-</text><text class="cls-24" transform="matrix(0.96, -0.28, 0.28, 0.96, 329.19, 55.42)"> </text><text class="cls-31" transform="translate(333.33 54.08) rotate(-11.12)">A</text><text class="cls-32" transform="translate(343.79 52.22) rotate(-5.01)">t</text><text class="cls-12" transform="translate(349.5 51.7) rotate(-1.29)">e</text><text class="cls-12" transform="translate(357.37 51.59) rotate(1.29)">l</text><text class="cls-26" transform="translate(360.82 51.68) rotate(3.1)">i</text><text class="cls-33" transform="translate(364.27 51.79) rotate(6.99)">e</text><text class="cls-34" transform="matrix(0.98, 0.21, -0.21, 0.98, 372.09, 52.76)">r</text><text class="cls-24" transform="matrix(0.96, 0.28, -0.28, 0.96, 377.67, 53.95)"> </text><text class="cls-17" transform="matrix(0.94, 0.35, -0.35, 0.94, 381.87, 55.09)">s</text><text class="cls-35" transform="translate(388.42 57.56) rotate(24.66)">u</text><text class="cls-36" transform="translate(395.82 60.99) rotate(24.92)">r</text><text class="cls-37" transform="matrix(0.92, 0.39, -0.39, 0.92, 401, 63.39)"> </text><text class="cls-28" transform="translate(404.95 65.24) rotate(17.23)">m</text><text class="cls-33" transform="translate(416.5 68.59) rotate(9.04)">e</text><text class="cls-2" transform="matrix(1, 0.07, -0.07, 1, 424.28, 69.78)">r</text><text class="cls-1" transform="translate(37.76 80.5) rotate(2.19)">A</text><text class="cls-2" transform="translate(48.38 81.02) rotate(8.01)">t</text><text class="cls-3" transform="translate(54.08 81.73) rotate(13.21)">e</text><text class="cls-4" transform="translate(61.72 83.59) rotate(17.23)">l</text><text class="cls-5" transform="translate(65.01 84.63) rotate(19.94)">i</text><text class="cls-6" transform="translate(68.28 85.75) rotate(23.91)">e</text><text class="cls-7" transform="translate(75.46 88.97) rotate(25.18)">r</text><text class="cls-6" transform="translate(80.63 91.4) rotate(23.91)"> </text><text class="cls-8" transform="matrix(0.94, 0.35, -0.35, 0.94, 84.58, 93.2)">s</text><text class="cls-9" transform="matrix(0.97, 0.25, -0.25, 0.97, 91.12, 95.74)">u</text><text class="cls-10" transform="translate(99.03 97.71) rotate(9.04)">r</text><text class="cls-11" transform="translate(104.67 98.57) rotate(5.99)"> </text><text class="cls-12" transform="translate(108.99 99.13) rotate(1.29)">m</text><text class="cls-2" transform="matrix(1, -0.07, 0.07, 1, 121.02, 99.31)">e</text><text class="cls-13" transform="translate(128.87 98.72) rotate(-8.01)">r</text><text class="cls-14" transform="translate(134.52 97.89) rotate(-12.17)"> </text><text class="cls-15" transform="translate(138.77 97) rotate(-16.25)">-</text><text class="cls-16" transform="translate(143.59 95.6) rotate(-19.94)"> </text><text class="cls-17" transform="translate(147.7 94.18) rotate(-23.91)">S</text><text class="cls-18" transform="translate(155.64 90.61) rotate(-25.09)">t</text><text class="cls-19" transform="translate(160.81 88.14) rotate(-22.85)">u</text><text class="cls-15" transform="translate(168.32 84.94) rotate(-16.25)">d</text><text class="cls-14" transform="translate(176.07 82.76) rotate(-12.17)">i</text><text class="cls-13" transform="translate(179.44 81.98) rotate(-8.01)">o</text><text class="cls-2" transform="matrix(1, -0.07, 0.07, 1, 187.45, 80.96)"> </text><text class="cls-20" transform="translate(191.78 80.62) rotate(-0.42)">d</text><text class="cls-21" transform="translate(199.83 80.57) rotate(3.1)">e</text><text class="cls-5" transform="translate(207.68 81.1) rotate(6.99)"> </text><text class="cls-22" transform="translate(212.03 81.46) rotate(13.21)">D</text><text class="cls-5" transform="translate(221.76 83.78) rotate(19.94)">e</text><text class="cls-23" transform="translate(229.15 86.51) rotate(24.33)">s</text><text class="cls-7" transform="translate(235.52 89.42) rotate(25.18)">i</text><text class="cls-6" transform="translate(238.62 90.92) rotate(23.91)">g</text><text class="cls-24" transform="translate(245.69 94.1) rotate(18.17)">n</text><text class="cls-22" transform="translate(253.45 96.59) rotate(13.21)"> </text><text class="cls-25" transform="translate(257.67 97.64) rotate(9.04)">g</text><text class="cls-6" transform="matrix(1, 0.07, -0.07, 1, 265.32, 98.79)">r</text><text class="cls-20" transform="translate(271.02 99.25) rotate(0.42)">a</text><text class="cls-26" transform="translate(278.75 99.33) rotate(-3.1)">p</text><text class="cls-27" transform="translate(286.79 98.88) rotate(-8.01)">h</text><text class="cls-24" transform="translate(294.85 97.65) rotate(-13.21)">i</text><text class="cls-28" transform="translate(298.23 96.94) rotate(-17.23)">q</text><text class="cls-29" transform="matrix(0.92, -0.4, 0.4, 0.92, 305.92, 94.53)">u</text><text class="cls-30" transform="translate(313.38 91.25) rotate(-25.17)">e</text><text class="cls-29" transform="matrix(0.92, -0.4, 0.4, 0.92, 320.5, 87.91)"> </text><text class="cls-29" transform="matrix(0.94, -0.34, 0.34, 0.94, 324.48, 86.16)">-</text><text class="cls-24" transform="matrix(0.96, -0.28, 0.28, 0.96, 329.19, 84.42)"> </text><text class="cls-31" transform="translate(333.33 83.08) rotate(-11.12)">A</text><text class="cls-32" transform="translate(343.79 81.22) rotate(-5.01)">t</text><text class="cls-12" transform="translate(349.5 80.7) rotate(-1.29)">e</text><text class="cls-12" transform="translate(357.37 80.59) rotate(1.29)">l</text><text class="cls-26" transform="translate(360.82 80.68) rotate(3.1)">i</text><text class="cls-33" transform="translate(364.27 80.79) rotate(6.99)">e</text><text class="cls-34" transform="matrix(0.98, 0.21, -0.21, 0.98, 372.09, 81.76)">r</text><text class="cls-24" transform="matrix(0.96, 0.28, -0.28, 0.96, 377.67, 82.95)"> </text><text class="cls-17" transform="matrix(0.94, 0.35, -0.35, 0.94, 381.87, 84.09)">s</text><text class="cls-35" transform="translate(388.42 86.56) rotate(24.66)">u</text><text class="cls-36" transform="translate(395.82 89.99) rotate(24.92)">r</text><text class="cls-37" transform="matrix(0.92, 0.39, -0.39, 0.92, 401, 92.39)"> </text><text class="cls-28" transform="translate(404.94 94.24) rotate(17.23)">m</text><text class="cls-33" transform="translate(416.5 97.59) rotate(9.04)">e</text><text class="cls-2" transform="matrix(1, 0.07, -0.07, 1, 424.28, 98.78)">r</text><text class="cls-1" transform="translate(37.76 109.5) rotate(2.19)">A</text><text class="cls-2" transform="translate(48.38 110.02) rotate(8.01)">t</text><text class="cls-3" transform="translate(54.08 110.73) rotate(13.21)">e</text><text class="cls-4" transform="translate(61.72 112.59) rotate(17.23)">l</text><text class="cls-5" transform="translate(65.01 113.63) rotate(19.94)">i</text><text class="cls-6" transform="translate(68.28 114.75) rotate(23.91)">e</text><text class="cls-7" transform="translate(75.46 117.97) rotate(25.18)">r</text><text class="cls-6" transform="translate(80.63 120.4) rotate(23.91)"> </text><text class="cls-8" transform="matrix(0.94, 0.35, -0.35, 0.94, 84.58, 122.2)">s</text><text class="cls-9" transform="matrix(0.97, 0.25, -0.25, 0.97, 91.12, 124.74)">u</text><text class="cls-10" transform="translate(99.03 126.71) rotate(9.04)">r</text><text class="cls-11" transform="translate(104.67 127.57) rotate(5.99)"> </text><text class="cls-12" transform="translate(108.99 128.13) rotate(1.29)">m</text><text class="cls-2" transform="matrix(1, -0.07, 0.07, 1, 121.02, 128.31)">e</text><text class="cls-13" transform="translate(128.87 127.72) rotate(-8.01)">r</text><text class="cls-14" transform="translate(134.52 126.89) rotate(-12.17)"> </text><text class="cls-15" transform="translate(138.77 126) rotate(-16.25)">-</text><text class="cls-16" transform="translate(143.59 124.6) rotate(-19.94)"> </text><text class="cls-17" transform="translate(147.7 123.18) rotate(-23.91)">S</text><text class="cls-18" transform="translate(155.64 119.61) rotate(-25.09)">t</text><text class="cls-19" transform="translate(160.81 117.14) rotate(-22.85)">u</text><text class="cls-15" transform="translate(168.32 113.94) rotate(-16.25)">d</text><text class="cls-14" transform="translate(176.07 111.76) rotate(-12.17)">i</text><text class="cls-13" transform="translate(179.44 110.98) rotate(-8.01)">o</text><text class="cls-2" transform="matrix(1, -0.07, 0.07, 1, 187.45, 109.96)"> </text><text class="cls-20" transform="translate(191.78 109.62) rotate(-0.42)">d</text><text class="cls-21" transform="translate(199.83 109.57) rotate(3.1)">e</text><text class="cls-5" transform="translate(207.68 110.1) rotate(6.99)"> </text><text class="cls-22" transform="translate(212.03 110.46) rotate(13.21)">D</text><text class="cls-5" transform="translate(221.76 112.78) rotate(19.94)">e</text><text class="cls-23" transform="translate(229.15 115.51) rotate(24.33)">s</text><text class="cls-7" transform="translate(235.51 118.42) rotate(25.18)">i</text><text class="cls-6" transform="translate(238.62 119.92) rotate(23.91)">g</text><text class="cls-24" transform="translate(245.69 123.1) rotate(18.17)">n</text><text class="cls-22" transform="translate(253.45 125.59) rotate(13.21)"> </text><text class="cls-25" transform="translate(257.67 126.64) rotate(9.04)">g</text><text class="cls-6" transform="matrix(1, 0.07, -0.07, 1, 265.32, 127.79)">r</text><text class="cls-20" transform="translate(271.02 128.25) rotate(0.42)">a</text><text class="cls-26" transform="translate(278.75 128.33) rotate(-3.1)">p</text><text class="cls-27" transform="translate(286.79 127.88) rotate(-8.01)">h</text><text class="cls-24" transform="translate(294.85 126.65) rotate(-13.21)">i</text><text class="cls-28" transform="translate(298.23 125.94) rotate(-17.23)">q</text><text class="cls-29" transform="matrix(0.92, -0.4, 0.4, 0.92, 305.92, 123.53)">u</text><text class="cls-30" transform="translate(313.38 120.25) rotate(-25.17)">e</text><text class="cls-29" transform="matrix(0.92, -0.4, 0.4, 0.92, 320.5, 116.91)"> </text><text class="cls-29" transform="matrix(0.94, -0.34, 0.34, 0.94, 324.48, 115.16)">-</text><text class="cls-24" transform="matrix(0.96, -0.28, 0.28, 0.96, 329.19, 113.42)"> </text><text class="cls-31" transform="translate(333.33 112.08) rotate(-11.12)">A</text><text class="cls-32" transform="translate(343.79 110.22) rotate(-5.01)">t</text><text class="cls-12" transform="translate(349.5 109.7) rotate(-1.29)">e</text><text class="cls-12" transform="translate(357.37 109.59) rotate(1.29)">l</text><text class="cls-26" transform="translate(360.82 109.68) rotate(3.1)">i</text><text class="cls-33" transform="translate(364.27 109.79) rotate(6.99)">e</text><text class="cls-34" transform="matrix(0.98, 0.21, -0.21, 0.98, 372.09, 110.76)">r</text><text class="cls-24" transform="matrix(0.96, 0.28, -0.28, 0.96, 377.67, 111.96)"> </text><text class="cls-17" transform="matrix(0.94, 0.35, -0.35, 0.94, 381.87, 113.09)">s</text><text class="cls-35" transform="translate(388.42 115.56) rotate(24.66)">u</text><text class="cls-36" transform="translate(395.82 118.99) rotate(24.92)">r</text><text class="cls-37" transform="matrix(0.92, 0.39, -0.39, 0.92, 401, 121.39)"> </text><text class="cls-28" transform="translate(404.95 123.24) rotate(17.23)">m</text><text class="cls-33" transform="translate(416.5 126.59) rotate(9.04)">e</text><text class="cls-2" transform="matrix(1, 0.07, -0.07, 1, 424.28, 127.78)">r</text><text class="cls-1" transform="translate(37.76 138.5) rotate(2.19)">A</text><text class="cls-2" transform="translate(48.38 139.02) rotate(8.01)">t</text><text class="cls-3" transform="translate(54.08 139.73) rotate(13.21)">e</text><text class="cls-4" transform="translate(61.72 141.59) rotate(17.23)">l</text><text class="cls-5" transform="translate(65.01 142.63) rotate(19.94)">i</text><text class="cls-6" transform="translate(68.28 143.75) rotate(23.91)">e</text><text class="cls-7" transform="translate(75.46 146.97) rotate(25.18)">r</text><text class="cls-6" transform="translate(80.63 149.4) rotate(23.91)"> </text><text class="cls-8" transform="matrix(0.94, 0.35, -0.35, 0.94, 84.58, 151.2)">s</text><text class="cls-9" transform="matrix(0.97, 0.25, -0.25, 0.97, 91.12, 153.74)">u</text><text class="cls-10" transform="translate(99.03 155.71) rotate(9.04)">r</text><text class="cls-11" transform="translate(104.67 156.57) rotate(5.99)"> </text><text class="cls-12" transform="translate(108.99 157.13) rotate(1.29)">m</text><text class="cls-2" transform="matrix(1, -0.07, 0.07, 1, 121.02, 157.31)">e</text><text class="cls-13" transform="translate(128.87 156.72) rotate(-8.01)">r</text><text class="cls-14" transform="translate(134.52 155.89) rotate(-12.17)"> </text><text class="cls-15" transform="translate(138.77 155) rotate(-16.25)">-</text><text class="cls-16" transform="translate(143.59 153.6) rotate(-19.94)"> </text><text class="cls-17" transform="translate(147.7 152.18) rotate(-23.91)">S</text><text class="cls-18" transform="translate(155.64 148.61) rotate(-25.09)">t</text><text class="cls-19" transform="translate(160.81 146.14) rotate(-22.85)">u</text><text class="cls-15" transform="translate(168.32 142.94) rotate(-16.25)">d</text><text class="cls-14" transform="translate(176.07 140.76) rotate(-12.17)">i</text><text class="cls-13" transform="translate(179.44 139.98) rotate(-8.01)">o</text><text class="cls-2" transform="matrix(1, -0.07, 0.07, 1, 187.45, 138.96)"> </text><text class="cls-20" transform="translate(191.78 138.62) rotate(-0.42)">d</text><text class="cls-21" transform="translate(199.83 138.57) rotate(3.1)">e</text><text class="cls-5" transform="translate(207.68 139.1) rotate(6.99)"> </text><text class="cls-22" transform="translate(212.03 139.46) rotate(13.21)">D</text><text class="cls-5" transform="translate(221.76 141.78) rotate(19.94)">e</text><text class="cls-23" transform="translate(229.15 144.51) rotate(24.33)">s</text><text class="cls-7" transform="translate(235.51 147.42) rotate(25.18)">i</text><text class="cls-6" transform="translate(238.62 148.92) rotate(23.91)">g</text><text class="cls-24" transform="translate(245.69 152.1) rotate(18.17)">n</text><text class="cls-22" transform="translate(253.45 154.59) rotate(13.21)"> </text><text class="cls-25" transform="translate(257.67 155.64) rotate(9.04)">g</text><text class="cls-6" transform="matrix(1, 0.07, -0.07, 1, 265.32, 156.79)">r</text><text class="cls-20" transform="translate(271.02 157.25) rotate(0.42)">a</text><text class="cls-26" transform="translate(278.75 157.33) rotate(-3.1)">p</text><text class="cls-27" transform="translate(286.79 156.88) rotate(-8.01)">h</text><text class="cls-24" transform="translate(294.85 155.65) rotate(-13.21)">i</text><text class="cls-28" transform="translate(298.23 154.94) rotate(-17.23)">q</text><text class="cls-29" transform="matrix(0.92, -0.4, 0.4, 0.92, 305.92, 152.53)">u</text><text class="cls-30" transform="translate(313.38 149.25) rotate(-25.17)">e</text><text class="cls-29" transform="matrix(0.92, -0.4, 0.4, 0.92, 320.5, 145.91)"> </text><text class="cls-29" transform="matrix(0.94, -0.34, 0.34, 0.94, 324.48, 144.16)">-</text><text class="cls-24" transform="matrix(0.96, -0.28, 0.28, 0.96, 329.19, 142.42)"> </text><text class="cls-31" transform="translate(333.33 141.08) rotate(-11.12)">A</text><text class="cls-32" transform="translate(343.79 139.22) rotate(-5.01)">t</text><text class="cls-12" transform="translate(349.5 138.7) rotate(-1.29)">e</text><text class="cls-12" transform="translate(357.37 138.59) rotate(1.29)">l</text><text class="cls-26" transform="translate(360.82 138.68) rotate(3.1)">i</text><text class="cls-33" transform="translate(364.27 138.79) rotate(6.99)">e</text><text class="cls-34" transform="matrix(0.98, 0.21, -0.21, 0.98, 372.09, 139.76)">r</text><text class="cls-24" transform="matrix(0.96, 0.28, -0.28, 0.96, 377.67, 140.96)"> </text><text class="cls-17" transform="matrix(0.94, 0.35, -0.35, 0.94, 381.87, 142.09)">s</text><text class="cls-35" transform="translate(388.42 144.56) rotate(24.66)">u</text><text class="cls-36" transform="translate(395.82 147.99) rotate(24.92)">r</text><text class="cls-37" transform="matrix(0.92, 0.39, -0.39, 0.92, 401, 150.39)"> </text><text class="cls-28" transform="translate(404.94 152.24) rotate(17.23)">m</text><text class="cls-33" transform="translate(416.5 155.59) rotate(9.04)">e</text><text class="cls-2" transform="matrix(1, 0.07, -0.07, 1, 424.28, 156.78)">r</text></svg>